<svg xmlns="http://www.w3.org/2000/svg" xmlns:xlink="http://www.w3.org/1999/xlink" width="52" height="52" viewBox="0 0 52 52">
  <defs>
    <filter id="Rectangle_674" x="0" y="0" width="52" height="52" filterUnits="userSpaceOnUse">
      <feOffset dy="2" input="SourceAlpha"/>
      <feGaussianBlur stdDeviation="2" result="blur"/>
      <feFlood flood-opacity="0.2"/>
      <feComposite operator="in" in2="blur"/>
      <feComposite in="SourceGraphic"/>
    </filter>
  </defs>
  <g id="Component_225" data-name="Component 225" transform="translate(6 4)">
    <g transform="matrix(1, 0, 0, 1, -6, -4)" filter="url(#Rectangle_674)">
      <rect id="Rectangle_674-2" data-name="Rectangle 674" width="40" height="40" rx="20" transform="translate(6 4)" fill="#fff"/>
    </g>
    <path id="path" d="M20.4,20.6a2.819,2.819,0,0,1-5.333,0H3.452a.952.952,0,1,1,0-1.9H15.071a2.819,2.819,0,0,1,5.333,0h1.143a.952.952,0,0,1,0,1.9Zm-3.619-.952a.952.952,0,1,0,.952-.952.9.9,0,0,0-.952.952ZM15.167,6.31a2.819,2.819,0,0,1-5.333,0H3.452A.9.9,0,0,1,2.5,5.357.9.9,0,0,1,3.452,4.4H9.833a2.819,2.819,0,0,1,5.333,0h6.381a.9.9,0,0,1,.952.952.9.9,0,0,1-.952.952Zm-3.619-.952a.952.952,0,1,0,1.9,0,.952.952,0,1,0-1.9,0Zm10,8.1H9.929a2.819,2.819,0,0,1-5.333,0H3.452a.952.952,0,1,1,0-1.9H4.6a2.819,2.819,0,0,1,5.333,0H21.548a.952.952,0,0,1,0,1.9ZM6.31,12.5a.9.9,0,0,0,.952.952.952.952,0,0,0,0-1.9.9.9,0,0,0-.952.952Z" transform="translate(7.5 7.5)" fill="#1d7880"/>
  </g>
</svg>
