<svg xmlns="http://www.w3.org/2000/svg" xmlns:xlink="http://www.w3.org/1999/xlink" width="636" height="338" viewBox="0 0 636 338">
  <defs>
    <filter id="Path_404" x="0" y="0" width="636" height="338" filterUnits="userSpaceOnUse">
      <feOffset dy="3" input="SourceAlpha"/>
      <feGaussianBlur stdDeviation="3" result="blur"/>
      <feFlood flood-opacity="0.161"/>
      <feComposite operator="in" in2="blur"/>
      <feComposite in="SourceGraphic"/>
    </filter>
  </defs>
  <g id="PopUp_2" data-name="PopUp 2" transform="translate(9 6)">
    <g transform="matrix(1, 0, 0, 1, -9, -6)" filter="url(#Path_404)">
      <g id="Path_404-2" data-name="Path 404" transform="translate(9 6)" fill="#fff">
        <path d="M10,0H608a10,10,0,0,1,10,10V310a10,10,0,0,1-10,10H10A10,10,0,0,1,0,310V10A10,10,0,0,1,10,0Z" stroke="none"/>
        <path d="M 10 1 C 5.03741455078125 1 1 5.037384033203125 1 10 L 1 310 C 1 314.9626159667969 5.03741455078125 319 10 319 L 608 319 C 612.9625854492188 319 617 314.9626159667969 617 310 L 617 10 C 617 5.037384033203125 612.9625854492188 1 608 1 L 10 1 M 10 0 L 608 0 C 613.5228271484375 0 618 4.477142333984375 618 10 L 618 310 C 618 315.5228576660156 613.5228271484375 320 608 320 L 10 320 C 4.4771728515625 320 0 315.5228576660156 0 310 L 0 10 C 0 4.477142333984375 4.4771728515625 0 10 0 Z" stroke="none" fill="rgba(147,147,147,0.2)"/>
      </g>
    </g>
    <path id="Rectangle_1487" data-name="Rectangle 1487" d="M10,0H608a10,10,0,0,1,10,10V50a0,0,0,0,1,0,0H0a0,0,0,0,1,0,0V10A10,10,0,0,1,10,0Z" fill="#4f99bb"/>
    <text id="Notification" transform="translate(309 32)" fill="#fff" font-size="18" font-family="Arial-BoldMT, Arial" font-weight="700"><tspan x="-49.496" y="0">Notification</tspan></text>
    <g id="close" transform="translate(583.148 17.6)">
      <rect id="Rectangle_145" data-name="Rectangle 145" width="17.995" height="2.159" transform="translate(1.527 0) rotate(45)" fill="#fff"/>
      <rect id="Rectangle_146" data-name="Rectangle 146" width="17.995" height="2.159" transform="translate(14.252 1.527) rotate(135)" fill="#fff"/>
    </g>
    <text id="Title_goes_here_Lorem_ipsum_dolor_sit_amet_consetetur_sadipscing_elitr_sed_diam_nonumy_eirmod_tempor_invidunt_ut_labore_et_dolore_magna_aliquyam_erat_sed_diam_voluptua._At_vero_eos_et_accusam_et_justo_duo_dolores_et_ea_rebum._Stet_clita_kasd_gubergren_" data-name="Title goes here

Lorem ipsum dolor sit amet, consetetur sadipscing elitr, sed diam nonumy eirmod tempor invidunt ut labore et dolore magna aliquyam erat, sed diam voluptua. At vero eos et accusam et justo duo dolores et ea rebum. Stet clita kasd gubergren," transform="translate(30 71)" fill="#585858" font-size="20" font-family="Arial-BoldMT, Arial" font-weight="700"><tspan x="0" y="18">Title goes here</tspan><tspan x="0" y="40"></tspan><tspan font-size="17" font-family="ArialMT, Arial" font-weight="400"><tspan x="0" y="62">Lorem ipsum dolor sit amet, consetetur sadipscing elitr, sed diam nonumy </tspan><tspan x="0" y="84">eirmod tempor invidunt ut labore et dolore magna aliquyam erat, sed diam </tspan><tspan x="0" y="106">voluptua. At vero eos et accusam et justo duo dolores et ea rebum. Stet </tspan><tspan x="0" y="128">clita kasd gubergren, no sea takimata.</tspan></tspan></text>
    <text id="I_confirm_I_understand_and_want_to_proceed" data-name="I confirm I understand and want to proceed" transform="translate(32 235)" fill="#4f99bb" font-size="18" font-family="Arial-BoldMT, Arial" font-weight="700"><tspan x="0" y="16">I confirm I understand and want to proceed</tspan></text>
  </g>
</svg>
