<svg id="Component_180" data-name="Component 180" xmlns="http://www.w3.org/2000/svg" width="25.08" height="25.08" viewBox="0 0 25.08 25.08">
  <path id="Path_1426" data-name="Path 1426" d="M76.226,1085.174,71.534,1084v-2.63a.545.545,0,0,0-.1-.318l-1.93-2.715a.548.548,0,0,0-.995.318v5.386l-3.728,1.065v-14.172l.01-.43a8.1,8.1,0,0,1,.284-1.934h0a.548.548,0,0,0-.664-.677l-.755.192a1.368,1.368,0,0,1-.72-.017l-5.944-1.7a1.562,1.562,0,0,0-1.991,1.5v16.583a2.478,2.478,0,0,0,1.8,2.383l5.976,1.708a1.78,1.78,0,0,0,.494.07,1.805,1.805,0,0,0,.494-.069l5.928-1.7a1.382,1.382,0,0,1,.715-.012l6.9,1.728a1.564,1.564,0,0,0,1.944-1.516v-9.936a.548.548,0,0,0-.89-.429l-1.93,1.54a.549.549,0,0,0-.206.429Zm-14.472-14.295v14.227l-3.728-1.065v-14.227Z" transform="translate(-55 -1063.534)" fill="#1d7880"/>
  <path id="Path_1427" data-name="Path 1427" d="M80.225,1075.189c.178.115.347.225.415.281a4.9,4.9,0,0,1,1.1,1.96,1.028,1.028,0,0,0,1,.8,1,1,0,0,0,.229-.026,1.024,1.024,0,0,0,.766-.752,4.873,4.873,0,0,1,1.093-1.969c.059-.053.238-.169.428-.293,1.271-.827,4.649-3.022,4.649-7.019a7.165,7.165,0,1,0-14.33,0C75.574,1072.167,78.953,1074.362,80.225,1075.189Zm-.243-7.02a2.758,2.758,0,1,1,2.758,2.759A2.762,2.762,0,0,1,79.981,1068.169Z" transform="translate(-64.824 -1061)" fill="#1d7880"/>
</svg>
