<svg id="iconfinder_list_293685" data-name="iconfinder list 293685" xmlns="http://www.w3.org/2000/svg" width="27.991" height="24.632" viewBox="0 0 27.991 24.632">
  <path id="iconfinder_list_293685-2" data-name="iconfinder list 293685" d="M55,1007.239a3.359,3.359,0,1,0,3.359-3.359h0A3.359,3.359,0,0,0,55,1007.239M65.076,1005H82.991v4.478H65.076ZM55,1016.2a3.359,3.359,0,1,0,3.359-3.359h0A3.359,3.359,0,0,0,55,1016.2m10.076-2.24H82.991v4.479H65.076ZM55,1025.152a3.359,3.359,0,1,0,3.359-3.359A3.359,3.359,0,0,0,55,1025.152h0m10.076-2.24H82.991v4.48H65.076Z" transform="translate(-55 -1003.88)" fill="#fff"/>
</svg>
