<svg xmlns="http://www.w3.org/2000/svg" xmlns:xlink="http://www.w3.org/1999/xlink" width="956" height="78" viewBox="0 0 956 78">
  <defs>
    <filter id="Rectangle_2348" x="0" y="0" width="956" height="78" filterUnits="userSpaceOnUse">
      <feOffset dy="1" input="SourceAlpha"/>
      <feGaussianBlur stdDeviation="3" result="blur"/>
      <feFlood flood-opacity="0.161"/>
      <feComposite operator="in" in2="blur"/>
      <feComposite in="SourceGraphic"/>
    </filter>
  </defs>
  <g id="Component_235" data-name="Component 235" transform="translate(9 8)">
    <g transform="matrix(1, 0, 0, 1, -9, -8)" filter="url(#Rectangle_2348)">
      <rect id="Rectangle_2348-2" data-name="Rectangle 2348" width="938" height="60" rx="2" transform="translate(9 8)" fill="#fff"/>
    </g>
    <g id="Group_4623" data-name="Group 4623" transform="translate(2122 -3625)">
      <g id="Rectangle_166" data-name="Rectangle 166" transform="translate(-1402 3635)" fill="#fff" stroke="#1d7880" stroke-width="1">
        <rect width="94" height="40" rx="2" stroke="none"/>
        <rect x="0.5" y="0.5" width="93" height="39" rx="1.5" fill="none"/>
      </g>
      <g id="Group_3887" data-name="Group 3887" transform="translate(-1390 3647)">
        <text id="View" transform="translate(52.001 14)" fill="#1d7880" font-size="16" font-family="ArialMT, Arial"><tspan x="-17.195" y="0">View</tspan></text>
        <path id="Union_34" data-name="Union 34" d="M14.327,14.869H14.31v0C7.875,14.838,2.954,10.962.7,8.779A1.892,1.892,0,0,1,0,7.311,2.555,2.555,0,0,1,1.052,5.622C3.813,3.376,8.465.114,14.307,0h.035C20.192.111,24.836,3.376,27.6,5.622a2.554,2.554,0,0,1,1.048,1.688,1.888,1.888,0,0,1-.7,1.469c-2.255,2.183-7.162,6.059-13.607,6.087v0ZM8.608,7.434A5.719,5.719,0,1,0,14.327,1.68,5.759,5.759,0,0,0,8.608,7.434Zm5.719,2.234-.018,0v0a2.236,2.236,0,0,1,0-4.472h.035a2.236,2.236,0,0,1,0,4.472v0Z" transform="translate(0 0.999)" fill="#1d7880"/>
      </g>
    </g>
    <g id="Group_4624" data-name="Group 4624" transform="translate(2127 -3625)">
      <g id="Rectangle_2158" data-name="Rectangle 2158" transform="translate(-1293 3635)" fill="#fff" stroke="#1d7880" stroke-width="1">
        <rect width="94" height="40" rx="2" stroke="none"/>
        <rect x="0.5" y="0.5" width="93" height="39" rx="1.5" fill="none"/>
      </g>
      <g id="Group_3886" data-name="Group 3886" transform="translate(-1283 3646.5)">
        <text id="Survey" transform="translate(47 14)" fill="#1d7880" font-size="16" font-family="ArialMT, Arial"><tspan x="-24.898" y="0">Survey</tspan></text>
        <g id="Group_3885" data-name="Group 3885" transform="translate(0 0)">
          <path id="Path_1463" data-name="Path 1463" d="M17.609,17.5a.63.63,0,0,1-.63.63H6.891a.63.63,0,0,1-.63-.63V4.261h6.3V3H5V17.5a1.891,1.891,0,0,0,1.891,1.891H16.978A1.891,1.891,0,0,0,18.869,17.5V9.3H17.609Z" transform="translate(-5 -2.391)" fill="#1d7880" stroke="#1d7880" stroke-width="0.5"/>
          <path id="Path_1464" data-name="Path 1464" d="M23.01,2.567a1.942,1.942,0,0,0-2.673,0l-3.707,3.7L16,9.609l3.31-.662,3.7-3.7a1.891,1.891,0,0,0,0-2.679ZM18.686,7.781,17.576,8l.221-1.11,2.093-2.1.9.9Zm3.436-3.43-.448.441L20.785,3.9l.441-.448h0a.633.633,0,1,1,.9.9Z" transform="translate(-9.065 -2.034)" fill="#1d7880"/>
        </g>
      </g>
    </g>
    <text id="WG011_06" data-name="WG011/06" transform="translate(10 35)" font-size="14" font-family="Arial-BoldMT, Arial" font-weight="700" opacity="0.8"><tspan x="0" y="0">WG011/06</tspan></text>
    <text id="CE26" transform="translate(150 34)" fill="#585858" font-size="12" font-family="ArialMT, Arial"><tspan x="0" y="0">CE26</tspan></text>
    <text id="May_14_2020_09:12" data-name="May 14 2020, 09:12" transform="translate(552 34)" fill="#585858" font-size="12" font-family="ArialMT, Arial"><tspan x="0" y="0">May 14 2020, 09:12</tspan></text>
    <text id="_1100" data-name="1100" transform="translate(337 34)" fill="#585858" font-size="12" font-family="ArialMT, Arial"><tspan x="0" y="0">1100</tspan></text>
    <text id="HDT" transform="translate(269 34)" fill="#585858" font-size="12" font-family="ArialMT, Arial"><tspan x="0" y="0">HDT</tspan></text>
    <g id="Component_362_21" data-name="Component 362 – 21" transform="translate(422 21)">
      <rect id="Rectangle_2293" data-name="Rectangle 2293" width="82" height="19" rx="9.5" fill="#8dca61"/>
      <g id="Component_358_4" data-name="Component 358 – 4" transform="translate(10 4)">
        <text id="Within_Limits" data-name="Within Limits" transform="translate(31 9)" font-size="10" font-family="Arial-BoldMT, Arial" font-weight="700"><tspan x="-31.34" y="0">Within Limits</tspan></text>
      </g>
    </g>
  </g>
</svg>
