<svg xmlns="http://www.w3.org/2000/svg" xmlns:xlink="http://www.w3.org/1999/xlink" width="359" height="56" viewBox="0 0 359 56">
  <defs>
    <filter id="Rectangle_2182" x="0" y="0" width="359" height="56" filterUnits="userSpaceOnUse">
      <feOffset dy="1" input="SourceAlpha"/>
      <feGaussianBlur stdDeviation="2" result="blur"/>
      <feFlood flood-opacity="0.2"/>
      <feComposite operator="in" in2="blur"/>
      <feComposite in="SourceGraphic"/>
    </filter>
  </defs>
  <g id="Component_366" data-name="Component 366" transform="translate(6 5)">
    <g transform="matrix(1, 0, 0, 1, -6, -5)" filter="url(#Rectangle_2182)">
      <g id="Rectangle_2182-2" data-name="Rectangle 2182" transform="translate(6 5)" fill="#fff" stroke="#1d7880" stroke-width="1">
        <rect width="347" height="44" rx="2" stroke="none"/>
        <rect x="0.5" y="0.5" width="346" height="43" rx="1.5" fill="none"/>
      </g>
    </g>
    <g id="Component_365_6" data-name="Component 365 – 6" transform="translate(303 6)">
      <path id="Search_Icon" data-name="Search Icon" d="M13.484,11.923a7.2,7.2,0,0,0,1.486-4.432A7.453,7.453,0,0,0,7.539,0,7.544,7.544,0,0,0,0,7.492a7.544,7.544,0,0,0,7.539,7.492A7.079,7.079,0,0,0,12,13.506l4.4,4.379a1.031,1.031,0,0,0,1.486,0,1.016,1.016,0,0,0,0-1.477Zm-5.946.844A5.332,5.332,0,0,1,2.124,7.492a5.415,5.415,0,0,1,10.83,0A5.332,5.332,0,0,1,7.539,12.768Z" transform="translate(10.786 6.5)" fill="#1d7880" stroke="#1d7880" stroke-width="0.5"/>
      <g id="Rectangle_1554" data-name="Rectangle 1554" fill="#fff" stroke="#707070" stroke-width="1" opacity="0.209">
        <rect width="1" height="32" stroke="none"/>
        <rect x="0.5" y="0.5" height="31" fill="none"/>
      </g>
    </g>
    <g id="Component_364_1" data-name="Component 364 – 1" transform="translate(190 5)">
      <rect id="Rectangle_2160" data-name="Rectangle 2160" width="103" height="35" rx="2" fill="#f2f2f2"/>
      <path id="Path_26" data-name="Path 26" d="M4.284,0,0,4.33,1.111,5.452,4.284,2.245,7.457,5.452,8.568,4.33Z" transform="translate(92.958 19.652) rotate(180)" fill="#1d7880"/>
      <text id="Structure_ID" data-name="Structure ID" transform="translate(10 21)" fill="#1d7880" font-size="12" font-family="ArialMT, Arial"><tspan x="0" y="0">Structure ID</tspan></text>
    </g>
    <text id="Search_by_Structure_ID_Wire_R_" data-name="Search by Structure ID, Wire R…" transform="translate(10 26)" fill="#939393" font-size="12" font-family="ArialMT, Arial" opacity="0.8"><tspan x="0" y="0">Search by Structure ID, Wire R…</tspan></text>
  </g>
</svg>
