<svg xmlns="http://www.w3.org/2000/svg" xmlns:xlink="http://www.w3.org/1999/xlink" width="637" height="338" viewBox="0 0 637 338">
  <defs>
    <filter id="Rectangle_1486" x="0" y="0" width="637" height="338" filterUnits="userSpaceOnUse">
      <feOffset dy="3" input="SourceAlpha"/>
      <feGaussianBlur stdDeviation="3" result="blur"/>
      <feFlood flood-opacity="0.161"/>
      <feComposite operator="in" in2="blur"/>
      <feComposite in="SourceGraphic"/>
    </filter>
  </defs>
  <g id="PopUp_1" data-name="PopUp 1" transform="translate(9 6)">
    <g transform="matrix(1, 0, 0, 1, -9, -6)" filter="url(#Rectangle_1486)">
      <g id="Rectangle_1486-2" data-name="Rectangle 1486" transform="translate(9 6)" fill="#fff" stroke="rgba(147,147,147,0.2)" stroke-width="1">
        <rect width="619" height="320" rx="10" stroke="none"/>
        <rect x="0.5" y="0.5" width="618" height="319" rx="9.5" fill="none"/>
      </g>
    </g>
    <path id="Rectangle_1488" data-name="Rectangle 1488" d="M0,0H308a0,0,0,0,1,0,0V51a9,9,0,0,1-9,9H0a0,0,0,0,1,0,0V0A0,0,0,0,1,0,0Z" transform="translate(310 259)" fill="#8dc055"/>
    <path id="Rectangle_1489" data-name="Rectangle 1489" d="M0,0H308a0,0,0,0,1,0,0V60a0,0,0,0,1,0,0H9a9,9,0,0,1-9-9V0A0,0,0,0,1,0,0Z" transform="translate(1 259)" fill="#585858"/>
    <path id="Rectangle_1487" data-name="Rectangle 1487" d="M10,0H609a10,10,0,0,1,10,10V50a0,0,0,0,1,0,0H0a0,0,0,0,1,0,0V10A10,10,0,0,1,10,0Z" fill="#4f99bb"/>
    <text id="Notification" transform="translate(309 32)" fill="#fff" font-size="18" font-family="Arial-BoldMT, Arial" font-weight="700"><tspan x="-49.496" y="0">Notification</tspan></text>
    <g id="close" transform="translate(584.148 17.6)">
      <rect id="Rectangle_145" data-name="Rectangle 145" width="17.995" height="2.159" transform="translate(1.527 0) rotate(45)" fill="#fff"/>
      <rect id="Rectangle_146" data-name="Rectangle 146" width="17.995" height="2.159" transform="translate(14.252 1.527) rotate(135)" fill="#fff"/>
    </g>
    <text id="Title_goes_here_Lorem_ipsum_dolor_sit_amet_consetetur_sadipscing_elitr_sed_diam_nonumy_eirmod_tempor_invidunt_ut_labore_et_dolore_magna_aliquyam_erat_sed_diam_voluptua._At_vero_eos_et_accusam_et_justo_duo_dolores_et_ea_rebum._Stet_clita_kasd_gubergren_" data-name="Title goes here

Lorem ipsum dolor sit amet, consetetur sadipscing elitr, sed diam nonumy eirmod tempor invidunt ut labore et dolore magna aliquyam erat, sed diam voluptua. At vero eos et accusam et justo duo dolores et ea rebum. Stet clita kasd gubergren," transform="translate(30 71)" fill="#585858" font-size="20" font-family="Arial-BoldMT, Arial" font-weight="700"><tspan x="0" y="18">Title goes here</tspan><tspan x="0" y="40"></tspan><tspan font-size="17" font-family="ArialMT, Arial" font-weight="400"><tspan x="0" y="62">Lorem ipsum dolor sit amet, consetetur sadipscing elitr, sed diam nonumy </tspan><tspan x="0" y="84">eirmod tempor invidunt ut labore et dolore magna aliquyam erat, sed diam </tspan><tspan x="0" y="106">voluptua. At vero eos et accusam et justo duo dolores et ea rebum. Stet </tspan><tspan x="0" y="128">clita kasd gubergren, no sea takimata.</tspan></tspan></text>
    <text id="Confirm" transform="translate(412 277)" fill="#fff" font-size="20" font-family="ArialMT, Arial"><tspan x="16.995" y="18">Confirm</tspan></text>
    <text id="Cancel" transform="translate(98 277)" fill="#fff" font-size="20" font-family="ArialMT, Arial"><tspan x="26.372" y="18">Cancel</tspan></text>
  </g>
</svg>
