<svg id="Component_124" data-name="Component 124" xmlns="http://www.w3.org/2000/svg" width="56" height="43.077" viewBox="0 0 56 43.077">
  <path id="Path_1218" data-name="Path 1218" d="M99.477,102.865H90.39l-5.438-5.492s-.027-.027-.04-.027l-.027-.027h0A4.4,4.4,0,0,0,81.748,96H70.44a4.452,4.452,0,0,0-3.312,1.467v.013l-5.317,5.385H52.523A4.47,4.47,0,0,0,48,107.335V134.54a4.527,4.527,0,0,0,4.523,4.537H99.477A4.536,4.536,0,0,0,104,134.54V107.335A4.479,4.479,0,0,0,99.477,102.865ZM76,132.279a12.465,12.465,0,1,1,12.438-12.465A12.476,12.476,0,0,1,76,132.279Zm22.629-22.212a1.9,1.9,0,1,1,1.885-1.9A1.893,1.893,0,0,1,98.629,110.067Z" transform="translate(-48 -96)" fill="#1d7880"/>
</svg>
