<svg xmlns="http://www.w3.org/2000/svg" xmlns:xlink="http://www.w3.org/1999/xlink" width="526" height="56" viewBox="0 0 526 56">
  <defs>
    <filter id="Rectangle_660" x="0" y="0" width="526" height="56" filterUnits="userSpaceOnUse">
      <feOffset dy="2" input="SourceAlpha"/>
      <feGaussianBlur stdDeviation="2" result="blur"/>
      <feFlood flood-opacity="0.102"/>
      <feComposite operator="in" in2="blur"/>
      <feComposite in="SourceGraphic"/>
    </filter>
    <clipPath id="clip-path">
      <rect id="Rectangle_1624" data-name="Rectangle 1624" width="21" height="21" fill="none"/>
    </clipPath>
  </defs>
  <g id="Component_93" data-name="Component 93" transform="translate(6 4)">
    <g transform="matrix(1, 0, 0, 1, -6, -4)" filter="url(#Rectangle_660)">
      <rect id="Rectangle_660-2" data-name="Rectangle 660" width="514" height="44" rx="22" transform="translate(6 4)" fill="#fff"/>
    </g>
    <g id="Icon_search_Active" transform="translate(492.5 22.5)">
      <g id="Group_2744" data-name="Group 2744" transform="translate(-10.5 -10.5)" clip-path="url(#clip-path)">
        <path id="Path_1397" data-name="Path 1397" d="M8.458,3.8a4.717,4.717,0,0,1,3.887,7.337l-.524.786-.786.524a4.717,4.717,0,1,1-2.62-8.6m0-3.8a8.516,8.516,0,1,0,4.8,15.547l4.891,4.891a1.637,1.637,0,1,0,2.315-2.315l-4.891-4.891A8.516,8.516,0,0,0,8.458,0" transform="translate(0.058 0)" fill="#1d7880"/>
      </g>
    </g>
    <text id="Name" transform="translate(18 27)" fill="#9a9a9a" font-size="14" font-family="ArialMT, Arial"><tspan x="0" y="0">Search using WireRun, ELR or Balance Weight Anchors #</tspan></text>
  </g>
</svg>
