<svg xmlns="http://www.w3.org/2000/svg" xmlns:xlink="http://www.w3.org/1999/xlink" width="1470" height="90" viewBox="0 0 1470 90">
  <defs>
    <filter id="Path_1318" x="0" y="0" width="1470" height="90" filterUnits="userSpaceOnUse">
      <feOffset dy="3" input="SourceAlpha"/>
      <feGaussianBlur stdDeviation="5" result="blur"/>
      <feFlood flood-opacity="0.102"/>
      <feComposite operator="in" in2="blur"/>
      <feComposite in="SourceGraphic"/>
    </filter>
    <clipPath id="clip-path">
      <rect id="Rectangle_1546" data-name="Rectangle 1546" width="20" height="20" fill="none"/>
    </clipPath>
    <clipPath id="clip-path-2">
      <rect id="Rectangle_1547" data-name="Rectangle 1547" width="15.208" height="20" fill="none"/>
    </clipPath>
  </defs>
  <g id="Component_74" data-name="Component 74" transform="translate(15 12)">
    <g id="Header_OFFLINE">
      <g transform="matrix(1, 0, 0, 1, -15, -12)" filter="url(#Path_1318)">
        <path id="Path_1318-2" data-name="Path 1318" d="M0,0H1440V60H0Z" transform="translate(15 12)" fill="#005172"/>
      </g>
      <g id="network-rail-vector-logo" transform="translate(87 12)">
        <path id="Path_1178" data-name="Path 1178" d="M20.3,289.014h88.058l-48.773,9.3Zm48.577,11.511,16,3.8,23.48-15.294Zm22.558,5.328,12.224,2.9L108.343,289Z" transform="translate(-20.3 -274.798)" fill="#e76424"/>
        <g id="Group_2259" data-name="Group 2259" transform="translate(0.963)">
          <path id="Path_1179" data-name="Path 1179" d="M29.434,209.3h2.847l1.871,6.454h.027l1.342-6.454h2.224l-2.007,9.315H32.891l-1.912-6.44h-.027l-1.329,6.44H27.4Z" transform="translate(-27.4 -209.3)" fill="#fff"/>
          <path id="Path_1180" data-name="Path 1180" d="M106.481,234.822a8.81,8.81,0,0,1-2.3.366c-2.2,0-3.376-1.342-3.376-3.01a3.812,3.812,0,0,1,3.959-3.878,2.694,2.694,0,0,1,3.023,2.861,7.014,7.014,0,0,1-.176,1.247h-4.65c.027.705.366,1.261,1.763,1.261a5.313,5.313,0,0,0,2.061-.461Zm-.583-3.688c0-.705-.271-1.3-1.112-1.3a1.683,1.683,0,0,0-1.681,1.3Z" transform="translate(-90.848 -225.724)" fill="#fff"/>
          <path id="Path_1181" data-name="Path 1181" d="M156.771,216.447h1.03l.475-2.047h2.264l-.475,2.047h1.83l-.285,1.6h-1.925l-.407,1.83a5.772,5.772,0,0,0-.19,1.139c0,.447.542.691,1,.691a2.88,2.88,0,0,0,.732-.176l-.258,1.546a8.544,8.544,0,0,1-1.41.136c-1.166,0-2.332-.556-2.332-1.952a6.352,6.352,0,0,1,.2-1.342l.407-1.844H156.5Z" transform="translate(-136.887 -213.709)" fill="#fff"/>
          <path id="Path_1182" data-name="Path 1182" d="M208.957,236.076h-2.644l-.068-4.759h-.027l-2.278,4.759h-2.657L200.7,229.5h2.264l.041,4.759h.027l2.183-4.759h2.752l.027,4.759h.027l2.129-4.759h2.3Z" transform="translate(-174.109 -226.761)" fill="#fff"/>
          <path id="Path_1183" data-name="Path 1183" d="M287.6,235.188c-2.427,0-3.4-1.342-3.4-3.01.014-2.318,1.681-3.878,4.257-3.878,2.237,0,3.4,1.288,3.4,2.942C291.847,233.994,290.057,235.188,287.6,235.188Zm.732-5.288c-1.1,0-1.79,1.193-1.79,2.237,0,.895.461,1.478,1.234,1.464,1.058,0,1.735-.895,1.735-2.373C289.515,230.537,289.217,229.9,288.335,229.9Z" transform="translate(-245.055 -225.724)" fill="#fff"/>
          <path id="Path_1184" data-name="Path 1184" d="M345.844,228.463l-.258,1.342h.027a2.42,2.42,0,0,1,2.034-1.5,2.354,2.354,0,0,1,.949.176l-.529,2.007a1.608,1.608,0,0,0-1.044-.271c-.949,0-1.532.841-1.695,1.8l-.651,3.037H342.4l1.044-4.854a17.263,17.263,0,0,0,.285-1.708l2.115-.027Z" transform="translate(-294.488 -225.724)" fill="#fff"/>
          <path id="Path_1185" data-name="Path 1185" d="M386.747,209.3h2.3l-1.207,5.5h.027l2.183-2.752h2.59l-2.725,3.159,1.695,3.4h-2.535l-1.329-3.254h-.027l-.705,3.254H384.7Z" transform="translate(-330.212 -209.3)" fill="#fff"/>
          <path id="Path_1186" data-name="Path 1186" d="M445.307,209.3h2.834c1.776.014,3.9.068,3.891,2.373a2.664,2.664,0,0,1-2.576,2.657v.027c.732.068.963,1.058,1.1,1.654l.651,2.6h-2.332l-.475-2.373c-.23-1.22-.61-1.3-1.722-1.3h-.258l-.773,3.688H443.3Zm1.478,3.864h.976c1.085,0,1.925-.258,1.939-1.152,0-.664-.393-.949-1.152-.963h-1.315Z" transform="translate(-379.798 -209.3)" fill="#fff"/>
          <path id="Path_1187" data-name="Path 1187" d="M511.332,234.289l-.027-.027v.027a2.521,2.521,0,0,1-2.224,1.071c-1.41,0-2.2-.624-2.183-1.912.014-1.613,1.627-2.4,3.634-2.4.461,0,.908.041,1.234.068a.877.877,0,0,0,.027-.258c0-.475-.461-.854-1.207-.854a4.1,4.1,0,0,0-2.129.529l.231-1.654a7.314,7.314,0,0,1,2.413-.38c1.573,0,2.847.61,2.834,2.237,0,1.03-.583,2.508-.854,4.488h-1.858Zm-1.519-.447a1.724,1.724,0,0,0,1.722-1.559,3.3,3.3,0,0,0-.6-.041c-1.085-.041-1.885.353-1.885.922A.727.727,0,0,0,509.814,233.842Z" transform="translate(-432.847 -225.897)" fill="#fff"/>
          <path id="Path_1188" data-name="Path 1188" d="M562.81,212.039h2.3l-1.41,6.576h-2.3Zm.583-2.739h2.3l-.366,1.668h-2.3Z" transform="translate(-479.959 -209.3)" fill="#fff"/>
          <path id="Path_1189" data-name="Path 1189" d="M590.693,209.3H593l-1.993,9.315h-2.3Z" transform="translate(-503.557 -209.3)" fill="#fff"/>
        </g>
      </g>
      <text id="_Label" data-name="↳ Label" transform="translate(720 37)" fill="#fff" font-size="18" font-family="NetworkRailSans-Bold, Network Rail Sans" font-weight="700" letter-spacing="0em"><tspan x="-41.253" y="0">OLE-T App</tspan></text>
    </g>
    <g id="Group_2655" data-name="Group 2655" transform="translate(956 -13)">
      <g id="Component_67" data-name="Component 67" transform="translate(299 21)">
        <circle id="Ellipse_48" data-name="Ellipse 48" cx="22" cy="22" r="22" fill="#005172"/>
      </g>
      <g id="Icon_Search_White" transform="translate(321 43)">
        <g id="Group_2651" data-name="Group 2651" transform="translate(-10 -10)" clip-path="url(#clip-path)">
          <path id="Path_1249" data-name="Path 1249" d="M8.256,3.71a4.605,4.605,0,0,1,3.8,7.164l-.512.768-.768.512a4.605,4.605,0,1,1-2.558-8.4m0-3.71A8.315,8.315,0,1,0,12.9,15.223L17.68,20a1.6,1.6,0,1,0,2.26-2.26l-4.776-4.776A8.315,8.315,0,0,0,8.256,0" transform="translate(0.059 0)" fill="#fff"/>
        </g>
      </g>
    </g>
    <g id="Group_2657" data-name="Group 2657" transform="translate(961 -13)">
      <g id="Component_19_1" data-name="Component 19 – 1" transform="translate(348 21)">
        <circle id="Ellipse_48-2" data-name="Ellipse 48" cx="22" cy="22" r="22" fill="#005172"/>
      </g>
      <g id="Icon_User_White" transform="translate(369.595 43)">
        <g id="Group_2652" data-name="Group 2652" transform="translate(-7.604 -10)" clip-path="url(#clip-path-2)">
          <path id="Path_1250" data-name="Path 1250" d="M12.6,2.708c1.083,0,1.292,0,1.292,2.167,0,1.208-.708,2.167-1.292,2.167s-1.292-.958-1.292-2.167c0-2.167.208-2.167,1.292-2.167M12.6,0c-3.417,0-4,2.208-4,4.875S10.392,9.75,12.642,9.75s4.042-2.208,4.042-4.875S16.058,0,12.6,0" transform="translate(-5.017)" fill="#fff"/>
          <path id="Path_1251" data-name="Path 1251" d="M4.75,27.275a5.583,5.583,0,0,0,2.667.667h.417a5.583,5.583,0,0,0,2.625-.667c1.833.375,1.958.792,2.042,3.458a11.524,11.524,0,0,1-4.875.75,11.524,11.524,0,0,1-4.875-.75c.042-2.667.167-3.083,2-3.458M9.792,24.4a2.833,2.833,0,0,1-2,.833H7.375a2.833,2.833,0,0,1-2-.833C.75,25.233.083,26.567,0,31.15v.833s1.125,2.25,7.583,2.25,7.625-2.25,7.625-2.25v-.375a2.417,2.417,0,0,1,0-.333c-.083-4.708-.708-6.042-5.375-6.875" transform="translate(0 -14.233)" fill="#fff"/>
        </g>
      </g>
    </g>
  </g>
</svg>
