<svg id="Component_26" data-name="Component 26" xmlns="http://www.w3.org/2000/svg" width="150" height="1063" viewBox="0 0 150 1063">
  <path id="Union_19" data-name="Union 19" d="M4395-2363h150v1063H4395Z" transform="translate(-4395 2363)" fill="#4d748c"/>
  <rect id="Rectangle_1664" data-name="Rectangle 1664" width="150" height="99" fill="#fff" opacity="0.25"/>
  <g id="Group_2552" data-name="Group 2552" transform="translate(6 -100)">
    <text id="Work_Orders" data-name="Work Orders" transform="translate(69 181)" fill="#eff0f2" font-size="15" font-family="NetworkRailSans, Network Rail Sans" letter-spacing="0.03em"><tspan x="-40.455" y="0">Work Orders</tspan></text>
    <text id="Preference" transform="translate(69 278)" fill="#eff0f2" font-size="15" font-family="NetworkRailSans, Network Rail Sans" letter-spacing="0.03em"><tspan x="-34.89" y="0">Preference</tspan></text>
    <path id="ic_settings_24px" d="M33.142,21.754a14.02,14.02,0,0,0,.126-1.763,14.02,14.02,0,0,0-.126-1.763l3.8-2.969a.908.908,0,0,0,.216-1.151l-3.6-6.225a.9.9,0,0,0-1.1-.4l-4.48,1.8a13.144,13.144,0,0,0-3.04-1.763l-.684-4.768A.877.877,0,0,0,23.373,2h-7.2a.877.877,0,0,0-.882.756l-.684,4.768a13.822,13.822,0,0,0-3.04,1.763l-4.48-1.8a.878.878,0,0,0-1.1.4L2.4,14.108a.887.887,0,0,0,.216,1.151l3.8,2.969a14.268,14.268,0,0,0-.126,1.763,14.268,14.268,0,0,0,.126,1.763l-3.8,2.969A.908.908,0,0,0,2.4,25.874l3.6,6.225a.9.9,0,0,0,1.1.4l4.48-1.8a13.144,13.144,0,0,0,3.04,1.763l.684,4.768a.877.877,0,0,0,.882.756h7.2a.877.877,0,0,0,.882-.756l.684-4.768a13.822,13.822,0,0,0,3.04-1.763l4.48,1.8a.878.878,0,0,0,1.1-.4l3.6-6.225a.908.908,0,0,0-.216-1.151ZM19.775,26.288a6.3,6.3,0,1,1,6.3-6.3A6.3,6.3,0,0,1,19.775,26.288Z" transform="translate(49.229 219)" fill="none" stroke="#eff0f2" stroke-width="1"/>
    <path id="ic_assignment_24px" d="M34.111,4.889H25.983a5.81,5.81,0,0,0-10.967,0H6.889A3.9,3.9,0,0,0,3,8.778V36a3.9,3.9,0,0,0,3.889,3.889H34.111A3.9,3.9,0,0,0,38,36V8.778A3.9,3.9,0,0,0,34.111,4.889Zm-13.611,0a1.944,1.944,0,1,1-1.944,1.944A1.95,1.95,0,0,1,20.5,4.889Zm3.889,27.222H10.778V28.222H24.389Zm5.833-7.778H10.778V20.444H30.222Zm0-7.778H10.778V12.667H30.222Z" transform="translate(48.5 123)" fill="none" stroke="#fff" stroke-width="1"/>
  </g>
</svg>
