<svg id="Component_144" data-name="Component 144" xmlns="http://www.w3.org/2000/svg" width="22" height="22" viewBox="0 0 22 22">
  <g id="Path_323" data-name="Path 323" fill="none" opacity="0.5">
    <path d="M11,0A11,11,0,1,1,0,11,11,11,0,0,1,11,0Z" stroke="none"/>
    <path d="M 11 2.5 C 6.313079833984375 2.5 2.5 6.313079833984375 2.5 11 C 2.5 15.68692016601562 6.313079833984375 19.5 11 19.5 C 15.68692016601562 19.5 19.5 15.68692016601562 19.5 11 C 19.5 6.313079833984375 15.68692016601562 2.5 11 2.5 M 11 0 C 17.07513046264648 0 22 4.924869537353516 22 11 C 22 17.07513046264648 17.07513046264648 22 11 22 C 4.924869537353516 22 0 17.07513046264648 0 11 C 0 4.924869537353516 4.924869537353516 0 11 0 Z" stroke="none" fill="#1d7880"/>
  </g>
</svg>
