<svg xmlns="http://www.w3.org/2000/svg" xmlns:xlink="http://www.w3.org/1999/xlink" width="409.862" height="41" viewBox="0 0 409.862 41">
  <defs>
    <filter id="Pagination.BG" x="0" y="0" width="409.862" height="41" filterUnits="userSpaceOnUse">
      <feOffset dy="2" input="SourceAlpha"/>
      <feGaussianBlur stdDeviation="1.5" result="blur"/>
      <feFlood flood-opacity="0.051"/>
      <feComposite operator="in" in2="blur"/>
      <feComposite in="SourceGraphic"/>
    </filter>
  </defs>
  <g id="Pagination_2" data-name="Pagination 2" transform="translate(4.5 2.5)">
    <g id="Pagination.BG-2" data-name="Pagination.BG" fill="#fff" stroke="#d7dae2" stroke-width="1">
      <path d="M4,0H74.862a0,0,0,0,1,0,0V32a0,0,0,0,1,0,0H4a4,4,0,0,1-4-4V4A4,4,0,0,1,4,0Z" stroke="none"/>
      <path d="M4,.5H73.862a.5.5,0,0,1,.5.5V31a.5.5,0,0,1-.5.5H4A3.5,3.5,0,0,1,.5,28V4A3.5,3.5,0,0,1,4,.5Z" fill="none"/>
    </g>
    <g transform="matrix(1, 0, 0, 1, -4.5, -2.5)" filter="url(#Pagination.BG)">
      <g id="Pagination.BG-3" data-name="Pagination.BG" transform="translate(4.5 2.5)" fill="#fff" stroke="#d7dae2" stroke-width="1">
        <rect width="400.862" height="32" rx="4" stroke="none"/>
        <rect x="0.5" y="0.5" width="399.862" height="31" rx="3.5" fill="none"/>
      </g>
    </g>
    <text id="Last" transform="translate(359.862 21)" fill="#4f99bb" font-size="13" font-family="ArialMT, Arial"><tspan x="-12.286" y="0">Last</tspan></text>
    <text id="First" transform="translate(45.862 21)" fill="#585858" font-size="13" font-family="ArialMT, Arial"><tspan x="-12.635" y="0">First</tspan></text>
    <g id="_1" data-name="1" transform="translate(103.841)">
      <g id="Pagination.BG-4" data-name="Pagination.BG" fill="#4f99bb" stroke="#d7dae2" stroke-width="1">
        <rect width="32" height="32" stroke="none"/>
        <rect x="0.5" y="0.5" width="31" height="31" fill="none"/>
      </g>
      <text id="_1-2" data-name="1" transform="translate(16.021 21)" fill="#fff" font-size="13" font-family="ArialMT, Arial"><tspan x="-3.615" y="0">1</tspan></text>
    </g>
    <g id="_2" data-name="2" transform="translate(147.342)">
      <g id="Pagination.BG-5" data-name="Pagination.BG" fill="#fff" stroke="#d7dae2" stroke-width="1">
        <rect width="32" height="32" stroke="none"/>
        <rect x="0.5" y="0.5" width="31" height="31" fill="none"/>
      </g>
      <text id="_2-2" data-name="2" transform="translate(15.52 21)" fill="#4d4f5c" font-size="13" font-family="ArialMT, Arial"><tspan x="-3.615" y="0">2</tspan></text>
    </g>
    <g id="_3" data-name="3" transform="translate(190.843)">
      <g id="Pagination.BG-6" data-name="Pagination.BG" fill="#fff" stroke="#d7dae2" stroke-width="1">
        <rect width="32" height="32" stroke="none"/>
        <rect x="0.5" y="0.5" width="31" height="31" fill="none"/>
      </g>
      <text id="_3-2" data-name="3" transform="translate(16.019 21)" fill="#4d4f5c" font-size="13" font-family="ArialMT, Arial"><tspan x="-3.615" y="0">3</tspan></text>
    </g>
    <g id="_4" data-name="4" transform="translate(234.343)">
      <g id="Pagination.BG-7" data-name="Pagination.BG" fill="#fff" stroke="#d7dae2" stroke-width="1">
        <rect width="32" height="32" stroke="none"/>
        <rect x="0.5" y="0.5" width="31" height="31" fill="none"/>
      </g>
      <text id="_4-2" data-name="4" transform="translate(15.518 21)" fill="#4d4f5c" font-size="13" font-family="ArialMT, Arial"><tspan x="-3.615" y="0">4</tspan></text>
    </g>
    <g id="_5" data-name="5" transform="translate(277.844)">
      <g id="Pagination.BG-8" data-name="Pagination.BG" fill="#fff" stroke="#d7dae2" stroke-width="1">
        <rect width="32" height="32" stroke="none"/>
        <rect x="0.5" y="0.5" width="31" height="31" fill="none"/>
      </g>
      <text id="_5-2" data-name="5" transform="translate(16.017 21)" fill="#4d4f5c" font-size="13" font-family="ArialMT, Arial"><tspan x="-3.615" y="0">5</tspan></text>
    </g>
  </g>
</svg>
