<svg id="Component_273" data-name="Component 273" xmlns="http://www.w3.org/2000/svg" width="314" height="304" viewBox="0 0 314 304">
  <g id="Intersection_9" data-name="Intersection 9" transform="translate(61.629 33)" fill="#e4b720">
    <path d="M 86.95417022705078 116.1181411743164 L 1.416670203208923 38.27692031860352 C 6.565399646759033 32.72851181030273 12.26997661590576 27.66592025756836 18.38532066345215 23.2189769744873 C 24.82327270507812 18.53747749328613 31.75660514831543 14.50947761535645 38.99274826049805 11.24685859680176 C 46.36229705810547 7.924072742462158 54.1038932800293 5.369763374328613 62.00243759155273 3.654834747314453 C 70.11603546142578 1.893215775489807 78.47920227050781 1.000001430511475 86.85962677001953 1.000001430511475 C 96.75572204589844 1.000001430511475 106.5856094360352 2.241834878921509 116.0762023925781 4.691025257110596 C 125.2873229980469 7.06807279586792 134.2004699707031 10.58607292175293 142.5680847167969 15.14728736877441 C 150.7919921875 19.63016891479492 158.4784393310547 25.11369132995605 165.4139099121094 31.44550132751465 C 172.0828857421875 37.53401184082031 178.0375366210938 44.38828659057617 183.1250915527344 51.83112716674805 L 86.95417022705078 116.1181411743164 Z" stroke="none"/>
    <path d="M 86.85963439941406 2 C 78.55040740966797 2 70.25862884521484 2.885543823242188 62.21463012695312 4.632049560546875 C 54.38433837890625 6.332168579101562 46.70965576171875 8.864418029785156 39.40377807617188 12.15847015380859 C 32.22990417480469 15.39302062988281 25.35615539550781 19.38644409179688 18.97344970703125 24.02777099609375 C 13.182373046875 28.2388916015625 7.762527465820312 33.00722503662109 2.839813232421875 38.21992492675781 L 87.04872131347656 114.8520889282227 L 181.7256317138672 51.56373596191406 C 176.8096466064453 44.50553131103516 171.1022491455078 37.99280548095703 164.7396545410156 32.18402099609375 C 157.8635101318359 25.90634918212891 150.2428588867188 20.46977233886719 142.0894470214844 16.02529907226562 C 133.7940368652344 11.50344848632812 124.9578323364258 8.015800476074219 115.8263320922852 5.659294128417969 C 106.4172821044922 3.231170654296875 96.67147827148438 2 86.85963439941406 2 M 86.85963439941406 0 C 127.5640258789062 0 163.4348297119141 20.68357086181641 184.5172119140625 52.10337066650391 L 86.85963439941406 117.3841934204102 L 0 38.33982086181641 C 21.48776245117188 14.78069305419922 52.443603515625 0 86.85963439941406 0 Z" stroke="none" fill="#f8f8f8"/>
  </g>
  <g id="Intersection_8" data-name="Intersection 8" transform="translate(31 71.452)" fill="#c94043">
    <path d="M 118.3279266357422 79.75824737548828 L 1.002333164215088 77.71920013427734 C 1.092315316200256 63.33252716064453 3.797820091247559 49.31425857543945 9.047390937805176 36.04025268554688 C 11.61874103546143 29.53835487365723 14.80949115753174 23.22792053222656 18.53097343444824 17.28425407409668 C 22.03909111022949 11.6813850402832 26.0559253692627 6.344645500183105 30.48022651672363 1.407511711120605 L 118.3279266357422 79.75824737548828 Z" stroke="none"/>
    <path d="M 115.6520462036133 78.71159362792969 L 30.56239891052246 2.820743322372437 C 26.43720245361328 7.505441665649414 22.68039321899414 12.54151248931885 19.3785400390625 17.81493759155273 C 15.68932437896729 23.70705413818359 12.52629089355469 29.96267127990723 9.977307319641113 36.40802001953125 C 4.893959522247314 49.26171112060547 2.217063903808594 62.82116317749023 2.012665510177612 76.73661041259766 L 115.6520462036133 78.71159362792969 M 121.0038223266602 80.80490112304688 L 0.0002573486417531967 78.70193481445312 C 0.000107348634628579 78.62332153320312 7.348632607317995e-06 78.54084014892578 7.348632607317995e-06 78.46218872070312 C 7.348632607317995e-06 48.24963760375977 11.51174068450928 20.72293853759766 30.40449142456055 4.376220658741659e-06 L 121.0038223266602 80.80490112304688 Z" stroke="none" fill="#f8f8f8"/>
  </g>
  <g id="Intersection_10" data-name="Intersection 10" transform="translate(148.488 83.832)" fill="#8dca61">
    <path d="M 1.000012159347534 183.5161285400391 L 1.000012159347534 65.69392395019531 L 97.47475433349609 1.391047835350037 C 109.9167175292969 20.55292510986328 116.4869918823242 42.81614685058594 116.4869918823242 65.84628295898438 C 116.4869918823242 73.83158874511719 115.6906051635742 81.81159210205078 114.119987487793 89.56461334228516 C 112.5893936157227 97.1199951171875 110.305534362793 104.5516815185547 107.3318710327148 111.6532287597656 C 104.4121780395508 118.6259231567383 100.7983703613281 125.3511352539062 96.59084320068359 131.6420440673828 C 92.42322540283203 137.8732604980469 87.63703918457031 143.7327728271484 82.36520385742188 149.0578918457031 C 77.09353637695312 154.3828582763672 71.29289245605469 159.2172088623047 65.12442016601562 163.4266662597656 C 58.8972282409668 167.6761779785156 52.24024963378906 171.3260192871094 45.3383674621582 174.2747802734375 C 38.30924987792969 177.2778930664062 30.95346450805664 179.5843505859375 23.47532081604004 181.1300659179688 C 16.12536239624023 182.6492919921875 8.56935977935791 183.4511871337891 1.000012159347534 183.5161285400391 Z" stroke="none"/>
    <path d="M 97.18357086181641 2.786911010742188 L 1.999984741210938 66.22915649414062 L 1.999984741210938 182.5030975341797 C 9.166641235351562 182.3791198730469 16.31297302246094 181.58935546875 23.27286529541016 180.1507568359375 C 30.68585968017578 178.6185150146484 37.97756195068359 176.3321533203125 44.94546508789062 173.3551788330078 C 51.78763580322266 170.4319305419922 58.38716506958008 166.8135833740234 64.56073760986328 162.6006622314453 C 70.67653656005859 158.4271392822266 76.42771148681641 153.6339874267578 81.65451049804688 148.3543548583984 C 86.88166046142578 143.0743865966797 91.62731170654297 137.2645111083984 95.75959014892578 131.0860900878906 C 99.93144226074219 124.8485565185547 103.5145645141602 118.1804580688477 106.4094619750977 111.2669830322266 C 109.3578414916992 104.2258071899414 111.6222610473633 96.85728454589844 113.1398620605469 89.36605834960938 C 114.6972885131836 81.67823028564453 115.4869613647461 73.76502990722656 115.4869613647461 65.84626007080078 C 115.4869613647461 43.35089111328125 109.1645660400391 21.59266662597656 97.18357086181641 2.786911010742188 M 97.75875854492188 1.52587890625e-05 C 110.219612121582 18.84002685546875 117.4869613647461 41.48776245117188 117.4869613647461 65.84626007080078 C 117.4869613647461 131.3878784179688 64.88626098632812 184.5204010009766 -1.52587890625e-05 184.5204010009766 L -1.52587890625e-05 65.15868377685547 L 97.75875854492188 1.52587890625e-05 Z" stroke="none" fill="#f8f8f8"/>
  </g>
  <g id="Intersection_11" data-name="Intersection 11" transform="translate(31 150.288)" fill="#4d4f5c">
    <path d="M 116.4868927001953 117.0604629516602 C 108.9168395996094 116.996223449707 101.3600616455078 116.2029647827148 94.00945281982422 114.7001037597656 C 86.53072357177734 113.1710586547852 79.1744384765625 110.8895034790039 72.14488220214844 107.918815612793 C 65.24275970458984 105.0019836425781 58.58557510375977 101.3916778564453 52.35824966430664 97.18821716308594 C 46.18986511230469 93.02452087402344 40.38935852050781 88.24278259277344 35.11785125732422 82.975830078125 C 29.84637260437012 77.70889282226562 25.06052780151367 71.91341400146484 20.89326477050781 65.75038146972656 C 16.68623542785645 59.52853775024414 13.07288074493408 52.877197265625 10.15355777740479 45.98113632202148 C 7.180388450622559 38.95781326293945 4.89691162109375 31.60804557800293 3.366573333740234 24.13596725463867 C 1.817512512207031 16.57242965698242 1.021722674369812 8.789952278137207 1.000441551208496 0.9999986290931702 L 116.4868927001953 0.9999986290931702 L 116.4868927001953 117.0604629516602 Z" stroke="none"/>
    <path d="M 2.007484436035156 2 C 2.091178894042969 9.388511657714844 2.876899719238281 16.76109313964844 4.346237182617188 23.93533325195312 C 5.863319396972656 31.34268951416016 8.12701416015625 38.62879943847656 11.07444763183594 45.59128570556641 C 13.96856689453125 52.42787170410156 17.55081939697266 59.02190399169922 21.72166442871094 65.19025421142578 C 25.85326385498047 71.300537109375 30.59819793701172 77.04647064208984 35.82465362548828 82.26841735839844 C 41.0511474609375 87.49040222167969 46.80208587646484 92.23128509521484 52.91773223876953 96.35936737060547 C 59.09154891967773 100.5267181396484 65.69146728515625 104.1059722900391 72.53414916992188 106.997688293457 C 79.50294494628906 109.9427032470703 86.79566955566406 112.2045364379883 94.20976257324219 113.7203674316406 C 101.1709136962891 115.1436004638672 108.3189239501953 115.924934387207 115.4869003295898 116.0475921630859 L 115.4869003295898 2 L 2.007484436035156 2 M 0.0019683837890625 0 L 117.4869003295898 0 L 117.4869003295898 118.0647048950195 C 52.60050201416016 118.0647048950195 0 65.50920104980469 0 0.67950439453125 C 0 0.453948974609375 0.0006866455078125 0.2252349853515625 0.0019683837890625 0 Z" stroke="none" fill="#f8f8f8"/>
  </g>
  <g id="Group_4653" data-name="Group 4653" transform="translate(700 -508)">
    <rect id="Rectangle_2293" data-name="Rectangle 2293" width="28" height="26" rx="4" transform="translate(-523 508)" fill="#e4b720"/>
    <text id="_18" data-name="18" transform="translate(-518 526)" font-size="14" font-family="ArialMT, Arial"><tspan x="0" y="0">18</tspan></text>
  </g>
  <g id="Group_4654" data-name="Group 4654" transform="translate(769 -485)">
    <rect id="Rectangle_2293-2" data-name="Rectangle 2293" width="28" height="26" rx="4" transform="translate(-483 624)" fill="#8dca61"/>
    <text id="_44" data-name="44" transform="translate(-478 642)" font-size="14" font-family="ArialMT, Arial"><tspan x="0" y="0">44</tspan></text>
  </g>
  <g id="Group_4655" data-name="Group 4655" transform="translate(579 -346)">
    <rect id="Rectangle_2293-3" data-name="Rectangle 2293" width="28" height="26" rx="4" transform="translate(-473 624)" fill="#4d4f5c"/>
    <text id="_30" data-name="30" transform="translate(-468 642)" fill="#fff" font-size="14" font-family="ArialMT, Arial"><tspan x="0" y="0">30</tspan></text>
  </g>
  <g id="Group_4656" data-name="Group 4656" transform="translate(470 -547)">
    <rect id="Rectangle_2293-4" data-name="Rectangle 2293" width="25" height="26" rx="4" transform="translate(-470 624)" fill="#c94043"/>
    <text id="_18-2" data-name="18" transform="translate(-466 642)" fill="#fff" font-size="14" font-family="ArialMT, Arial"><tspan x="0" y="0">18</tspan></text>
  </g>
  <path id="Path_5208" data-name="Path 5208" d="M-11718.807,2750.514h12.847l7.044,11.2" transform="translate(11743 -2660)" fill="none" stroke="#c94043" stroke-width="1"/>
  <path id="Path_5209" data-name="Path 5209" d="M-11553.964,2688.1v8.085l-7.471,10.065" transform="translate(11746 -2663)" fill="none" stroke="#e4b720" stroke-width="1"/>
  <path id="Path_5210" data-name="Path 5210" d="M-11459.818,2813.249h-30.121" transform="translate(11748 -2661)" fill="none" stroke="#8dca61" stroke-width="1"/>
  <path id="Path_5224" data-name="Path 5224" d="M-12203.652,2951.365V2937.8l6.652-17.942" transform="translate(12324 -2667)" fill="none" stroke="#4d4f5c" stroke-width="1"/>
</svg>
