<svg xmlns="http://www.w3.org/2000/svg" xmlns:xlink="http://www.w3.org/1999/xlink" width="365" height="78" viewBox="0 0 365 78">
  <defs>
    <filter id="Rectangle_2166" x="0" y="0" width="365" height="78" filterUnits="userSpaceOnUse">
      <feOffset dy="1" input="SourceAlpha"/>
      <feGaussianBlur stdDeviation="3" result="blur"/>
      <feFlood flood-opacity="0.161"/>
      <feComposite operator="in" in2="blur"/>
      <feComposite in="SourceGraphic"/>
    </filter>
  </defs>
  <g id="Component_276" data-name="Component 276" transform="translate(9 8)">
    <g transform="matrix(1, 0, 0, 1, -9, -8)" filter="url(#Rectangle_2166)">
      <rect id="Rectangle_2166-2" data-name="Rectangle 2166" width="347" height="60" rx="4" transform="translate(9 8)" fill="#fff"/>
    </g>
    <g id="Component_274_1" data-name="Component 274 – 1" transform="translate(16 10)">
      <g id="Selectbox.BG" fill="#fff" stroke="rgba(0,0,0,0.15)" stroke-width="1">
        <rect width="153" height="40" rx="2" stroke="none"/>
        <rect x="0.5" y="0.5" width="152" height="39" rx="1.5" fill="none"/>
      </g>
      <path id="Path_1904" data-name="Path 1904" d="M8,10.182,0,2.1,2.074,0,8,5.989,13.926,0,16,2.1Z" transform="translate(81.182 12) rotate(90)" fill="#ccc"/>
    </g>
    <g id="Component_275_1" data-name="Component 275 – 1" transform="translate(179 10)">
      <g id="Selectbox.BG-2" data-name="Selectbox.BG" fill="#fff" stroke="rgba(0,0,0,0.15)" stroke-width="1">
        <rect width="153" height="40" rx="2" stroke="none"/>
        <rect x="0.5" y="0.5" width="152" height="39" rx="1.5" fill="none"/>
      </g>
      <path id="Path_5173" data-name="Path 5173" d="M8,0,0,8.086l2.074,2.1L8,4.193l5.926,5.989L16,8.086Z" transform="translate(82 12) rotate(90)" fill="#1d7880"/>
    </g>
  </g>
</svg>
