<svg xmlns="http://www.w3.org/2000/svg" xmlns:xlink="http://www.w3.org/1999/xlink" width="1054" height="50" viewBox="0 0 1054 50">
  <defs>
    <filter id="Rectangle_670" x="0" y="0" width="1054" height="50" filterUnits="userSpaceOnUse">
      <feOffset dy="3" input="SourceAlpha"/>
      <feGaussianBlur stdDeviation="5" result="blur"/>
      <feFlood flood-opacity="0.102"/>
      <feComposite operator="in" in2="blur"/>
      <feComposite in="SourceGraphic"/>
    </filter>
    <clipPath id="clip-path">
      <path id="Path_728" data-name="Path 728" d="M0-9.5A2.5,2.5,0,0,1,2.5-12h19A2.5,2.5,0,0,1,24-9.5V-3A2.5,2.5,0,0,1,21.5-.5h-19A2.5,2.5,0,0,1,0-3Z" transform="translate(0 12)" fill="none" stroke="#fff" stroke-width="1" clip-rule="evenodd"/>
    </clipPath>
    <clipPath id="clip-path-2">
      <path id="Path_730" data-name="Path 730" d="M25-8.372A2.251,2.251,0,0,1,26.5-6.25,2.251,2.251,0,0,1,25-4.128Z" transform="translate(-25 8.372)" fill="#fff" clip-rule="evenodd"/>
    </clipPath>
    <clipPath id="clip-path-3">
      <path id="Path_732" data-name="Path 732" d="M2-9a1,1,0,0,1,.992-1H21.008A.994.994,0,0,1,22-9V-3.5a1,1,0,0,1-.992,1H2.992A.994.994,0,0,1,2-3.5Z" transform="translate(-2 10)" fill="#fff" clip-rule="evenodd"/>
    </clipPath>
  </defs>
  <g id="Component_459" data-name="Component 459" transform="translate(15 12)">
    <g transform="matrix(1, 0, 0, 1, -15, -12)" filter="url(#Rectangle_670)">
      <rect id="Rectangle_670-2" data-name="Rectangle 670" width="1024" height="20" transform="translate(15 12)"/>
    </g>
    <path id="Path_1255" data-name="Path 1255" d="M1.148-5.941V-6.75a4.3,4.3,0,0,0,1.594-.372,1.834,1.834,0,0,0,.674-1.233h.832V0H3.123V-5.941ZM9.924-8.391a2.479,2.479,0,0,1,2.355,1.342,6,6,0,0,1,.563,2.842,6.843,6.843,0,0,1-.51,2.83A2.5,2.5,0,0,1,9.918.229a2.417,2.417,0,0,1-2.25-1.312,6.01,6.01,0,0,1-.615-2.941A7.267,7.267,0,0,1,7.422-6.48,2.526,2.526,0,0,1,9.924-8.391ZM9.912-.732a1.5,1.5,0,0,0,1.307-.727A5.26,5.26,0,0,0,11.7-4.166a6.688,6.688,0,0,0-.352-2.353,1.338,1.338,0,0,0-1.365-.923,1.427,1.427,0,0,0-1.362.876A6.049,6.049,0,0,0,8.2-3.984,6.338,6.338,0,0,0,8.47-1.922,1.5,1.5,0,0,0,9.912-.732ZM16.6-8.391a2.479,2.479,0,0,1,2.355,1.342,6,6,0,0,1,.563,2.842,6.843,6.843,0,0,1-.51,2.83A2.5,2.5,0,0,1,16.6.229a2.417,2.417,0,0,1-2.25-1.312,6.01,6.01,0,0,1-.615-2.941A7.267,7.267,0,0,1,14.1-6.48,2.526,2.526,0,0,1,16.6-8.391ZM16.589-.732A1.5,1.5,0,0,0,17.9-1.459a5.26,5.26,0,0,0,.486-2.707,6.688,6.688,0,0,0-.352-2.353,1.338,1.338,0,0,0-1.365-.923,1.427,1.427,0,0,0-1.362.876,6.049,6.049,0,0,0-.431,2.581,6.338,6.338,0,0,0,.275,2.063A1.5,1.5,0,0,0,16.589-.732ZM28.212-4.078a1.964,1.964,0,0,1,1.441.6,1.964,1.964,0,0,1,.6,1.441,1.964,1.964,0,0,1-.6,1.441,1.964,1.964,0,0,1-1.441.6,1.971,1.971,0,0,1-1.447-.6,1.964,1.964,0,0,1-.6-1.441,1.964,1.964,0,0,1,.6-1.441A1.971,1.971,0,0,1,28.212-4.078Zm-.85-4.277h.65L23.319.223h-.65Zm-4.9,3.469a1.169,1.169,0,0,0,.858-.354,1.162,1.162,0,0,0,.354-.853,1.162,1.162,0,0,0-.354-.853,1.169,1.169,0,0,0-.858-.354,1.167,1.167,0,0,0-.853.352,1.16,1.16,0,0,0-.354.855,1.162,1.162,0,0,0,.354.853A1.162,1.162,0,0,0,22.458-4.887Zm0-3.252a1.966,1.966,0,0,1,1.447.6,1.974,1.974,0,0,1,.6,1.444,1.964,1.964,0,0,1-.6,1.441,1.971,1.971,0,0,1-1.447.6,1.964,1.964,0,0,1-1.441-.6,1.964,1.964,0,0,1-.6-1.441,1.974,1.974,0,0,1,.6-1.444A1.96,1.96,0,0,1,22.458-8.139ZM28.212-.832a1.162,1.162,0,0,0,.853-.354,1.162,1.162,0,0,0,.354-.853,1.162,1.162,0,0,0-.354-.853,1.162,1.162,0,0,0-.853-.354,1.169,1.169,0,0,0-.858.354A1.162,1.162,0,0,0,27-2.039a1.162,1.162,0,0,0,.354.853A1.169,1.169,0,0,0,28.212-.832Z" transform="translate(946.493 13.391)" fill="#fff"/>
    <path id="Bluetooth" d="M293.5-12l4,3.5L294.75-6l2.75,2.5-4,3.5V-4.751L291.25-2.5l-.75-.75L293.25-6,290.5-8.75l.75-.75,2.25,2.25Zm1,2.37V-7L296-8.4Zm0,4.63v2.75L296-3.541Z" transform="translate(581 15)" fill="#fff" fill-rule="evenodd"/>
    <path id="_9:41_AM" data-name="9:41 AM" d="M-18.05-2.971v-3.8l-2.689,3.8ZM-18.032,0V-2.051h-3.68V-3.082l3.844-5.332h.891v5.443h1.236v.92h-1.236V0Zm4.02-6.193h1.225v1.277h-1.225Zm0,4.916h1.225V0h-1.225Zm3.152-4.664V-6.75a4.3,4.3,0,0,0,1.594-.372,1.834,1.834,0,0,0,.674-1.233h.832V0H-8.886V-5.941Zm7.119,3.914A1.333,1.333,0,0,0-3.067-.82a1.492,1.492,0,0,0,.727.176,1.633,1.633,0,0,0,1.289-.63A5.183,5.183,0,0,0-.3-3.832a1.954,1.954,0,0,1-.87.782,2.767,2.767,0,0,1-1.116.226A2.5,2.5,0,0,1-4.2-3.58a2.736,2.736,0,0,1-.706-1.945,3.114,3.114,0,0,1,.7-2.01A2.482,2.482,0,0,1-2.153-8.4,2.529,2.529,0,0,1,.378-6.75,5.825,5.825,0,0,1,.765-4.477,7.491,7.491,0,0,1,.3-1.746,2.678,2.678,0,0,1-2.3.234,2.519,2.519,0,0,1-4.169-.41a2.2,2.2,0,0,1-.639-1.617Zm1.6-1.723A1.8,1.8,0,0,0-1-4.163,1.75,1.75,0,0,0-.478-5.607a1.848,1.848,0,0,0-.466-1.38A1.63,1.63,0,0,0-2.13-7.441a1.549,1.549,0,0,0-1.228.519,2.028,2.028,0,0,0-.454,1.386,1.987,1.987,0,0,0,.4,1.3A1.555,1.555,0,0,0-2.142-3.75Zm11.49.223L8.042-7.33l-1.389,3.8ZM7.433-8.607H8.751L11.874,0H10.6L9.724-2.578h-3.4L5.388,0h-1.2Zm5.473,0h1.67L17.048-1.33,19.5-8.607h1.652V0H20.048V-5.08q0-.264.012-.873t.012-1.307L17.616,0H16.462L13.989-7.26V-7q0,.316.015.964t.015.952V0H12.905Z" transform="translate(512.712 13.607)" fill="#fff"/>
    <path id="Bars" d="M14.25-11h1.5a.75.75,0,0,1,.75.75v8.5a.75.75,0,0,1-.75.75h-1.5a.75.75,0,0,1-.75-.75v-8.5h0A.75.75,0,0,1,14.25-11ZM9.75-9h1.5a.75.75,0,0,1,.75.75v6.5a.75.75,0,0,1-.75.75H9.75A.75.75,0,0,1,9-1.75v-6.5A.75.75,0,0,1,9.75-9ZM5.25-7h1.5a.75.75,0,0,1,.75.75v4.5A.75.75,0,0,1,6.75-1H5.25a.75.75,0,0,1-.75-.75v-4.5A.75.75,0,0,1,5.25-7ZM.75-5.5h1.5A.75.75,0,0,1,3-4.75v3A.75.75,0,0,1,2.25-1H.75A.75.75,0,0,1,0-1.75v-3A.75.75,0,0,1,.75-5.5Z" transform="translate(10 15)" fill="#fff" fill-rule="evenodd"/>
    <path id="Wifi" d="M0,2.491a9.75,9.75,0,0,1,13.018,0l-.885.885a8.5,8.5,0,0,0-11.248,0ZM2.392,4.883a6.376,6.376,0,0,1,8.229,0l-.882.882a5.126,5.126,0,0,0-6.465,0ZM4.886,7.377a2.877,2.877,0,0,1,3.246,0L6.509,9Z" transform="translate(47.991 4.5)" fill="#fff" stroke="#fff" stroke-linecap="round" stroke-linejoin="round" stroke-width="1"/>
    <g id="Group_4668" data-name="Group 4668" transform="translate(987.726 4)">
      <g id="Group_4667" data-name="Group 4667">
        <g id="Battery_Outline" data-name="Battery Outline" clip-path="url(#clip-path)">
          <g id="Group_277" data-name="Group 277">
            <path id="Path_727" data-name="Path 727" d="M0,2.5A2.5,2.5,0,0,1,2.5,0h19A2.5,2.5,0,0,1,24,2.5V9a2.5,2.5,0,0,1-2.5,2.5h-19A2.5,2.5,0,0,1,0,9Z" fill="none" stroke="#fff" stroke-width="2"/>
          </g>
        </g>
        <g id="Cap" transform="translate(25 3.628)" clip-path="url(#clip-path-2)">
          <path id="Path_729" data-name="Path 729" d="M20,.872H31.5V-13.372H20Z" transform="translate(-25 8.372)" fill="#fff"/>
        </g>
      </g>
      <g id="Battery_Fill" data-name="Battery Fill" transform="translate(2 2)" clip-path="url(#clip-path-3)">
        <path id="Path_731" data-name="Path 731" d="M-3,2.5H27V-15H-3Z" transform="translate(-2 10)" fill="#fff"/>
      </g>
    </g>
  </g>
</svg>
