<svg xmlns="http://www.w3.org/2000/svg" xmlns:xlink="http://www.w3.org/1999/xlink" width="58" height="58" viewBox="0 0 58 58">
  <defs>
    <filter id="Ellipse_48" x="0" y="0" width="58" height="58" filterUnits="userSpaceOnUse">
      <feOffset dy="1" input="SourceAlpha"/>
      <feGaussianBlur stdDeviation="3" result="blur"/>
      <feFlood flood-opacity="0.2"/>
      <feComposite operator="in" in2="blur"/>
      <feComposite in="SourceGraphic"/>
    </filter>
  </defs>
  <g id="Component_91" data-name="Component 91" transform="translate(9 8)">
    <g transform="matrix(1, 0, 0, 1, -9, -8)" filter="url(#Ellipse_48)">
      <circle id="Ellipse_48-2" data-name="Ellipse 48" cx="20" cy="20" r="20" transform="translate(9 8)" fill="#1d7880"/>
    </g>
    <path id="Union_9" data-name="Union 9" d="M9.221,18.808V17.275a7.369,7.369,0,0,1-6.189-6.292H1.054a1.053,1.053,0,1,1,0-2.107h2.04A7.393,7.393,0,0,1,9.221,3V1.05a1.05,1.05,0,0,1,2.1,0V2.941a7.409,7.409,0,0,1,6.531,5.935h2.041a1.053,1.053,0,0,1,0,2.107H17.915a7.386,7.386,0,0,1-6.593,6.348v1.478a1.05,1.05,0,1,1-2.1,0ZM4.267,10.137a6.111,6.111,0,0,0,6.208,6,6.108,6.108,0,0,0,6.2-6,6.109,6.109,0,0,0-6.2-6A6.111,6.111,0,0,0,4.267,10.137Zm2.552,0A3.587,3.587,0,0,1,10.474,6.62a3.587,3.587,0,0,1,3.655,3.516,3.588,3.588,0,0,1-3.655,3.517A3.588,3.588,0,0,1,6.819,10.136Z" transform="translate(9.488 10.408)" fill="#fff"/>
  </g>
</svg>
