<svg id="Radio_Button_selected" data-name="Radio Button selected" xmlns="http://www.w3.org/2000/svg" width="99" height="30" viewBox="0 0 99 30">
  <text id="Selected" transform="translate(40 20)" fill="#43425d" font-size="15" font-family="ArialMT, Arial"><tspan x="0" y="0">Selected</tspan></text>
  <g id="Path_323" data-name="Path 323" fill="none">
    <path d="M15,0A15,15,0,1,1,0,15,15,15,0,0,1,15,0Z" stroke="none"/>
    <path d="M 15 3 C 11.79467964172363 3 8.781219482421875 4.248220443725586 6.514720916748047 6.514720916748047 C 4.248220443725586 8.781219482421875 3 11.79467964172363 3 15 C 3 18.20532035827637 4.248220443725586 21.21878051757812 6.514720916748047 23.48527908325195 C 8.781219482421875 25.75177955627441 11.79467964172363 27 15 27 C 18.20532035827637 27 21.21878051757812 25.75177955627441 23.48527908325195 23.48527908325195 C 25.75177955627441 21.21878051757812 27 18.20532035827637 27 15 C 27 11.79467964172363 25.75177955627441 8.781219482421875 23.48527908325195 6.514720916748047 C 21.21878051757812 4.248220443725586 18.20532035827637 3 15 3 M 15 0 C 23.28426933288574 0 30 6.715730667114258 30 15 C 30 23.28426933288574 23.28426933288574 30 15 30 C 6.715730667114258 30 0 23.28426933288574 0 15 C 0 6.715730667114258 6.715730667114258 0 15 0 Z" stroke="none" fill="#5098bb"/>
  </g>
  <rect id="Rectangle_716" data-name="Rectangle 716" width="14" height="14" rx="7" transform="translate(8 8)" fill="#4f99bb"/>
</svg>
