<svg xmlns="http://www.w3.org/2000/svg" xmlns:xlink="http://www.w3.org/1999/xlink" width="444" height="76" viewBox="0 0 444 76">
  <defs>
    <filter id="Rectangle_574" x="0" y="0" width="444" height="76" filterUnits="userSpaceOnUse">
      <feOffset dy="3" input="SourceAlpha"/>
      <feGaussianBlur stdDeviation="5" result="blur"/>
      <feFlood flood-opacity="0.102"/>
      <feComposite operator="in" in2="blur"/>
      <feComposite in="SourceGraphic"/>
    </filter>
    <clipPath id="clip-path">
      <rect id="Rectangle_1546" data-name="Rectangle 1546" width="20" height="20" fill="none"/>
    </clipPath>
    <clipPath id="clip-path-2">
      <rect id="Rectangle_1547" data-name="Rectangle 1547" width="15.208" height="20" fill="none"/>
    </clipPath>
    <clipPath id="clip-path-3">
      <circle id="Ellipse_48" data-name="Ellipse 48" cx="10" cy="10" r="10" fill="#005172"/>
    </clipPath>
    <clipPath id="clip-path-4">
      <rect id="Rectangle_1568" data-name="Rectangle 1568" width="20" height="16.667" fill="none"/>
    </clipPath>
  </defs>
  <g id="Component_70" data-name="Component 70" transform="translate(15 12)">
    <g id="Component_12_2" data-name="Component 12 – 2">
      <g transform="matrix(1, 0, 0, 1, -15, -12)" filter="url(#Rectangle_574)">
        <rect id="Rectangle_574-2" data-name="Rectangle 574" width="414" height="46" transform="translate(15 12)" fill="#005172"/>
      </g>
    </g>
    <g id="Component_13_2" data-name="Component 13 – 2" transform="translate(21 10)">
      <path id="Path_1178" data-name="Path 1178" d="M20.3,289.01H86.776l-36.82,7.122Zm36.671,8.814,12.079,2.907,17.725-11.71ZM74,301.9l9.228,2.222L86.764,289Z" transform="translate(-20.3 -278.126)" fill="#e76424"/>
      <path id="Path_1179" data-name="Path 1179" d="M28.935,209.3h2.149l1.412,4.942h.02l1.013-4.942H35.21l-1.515,7.132H31.545L30.1,211.5h-.02l-1,4.931H27.4Z" transform="translate(-26.673 -209.3)" fill="#fff"/>
      <path id="Path_1180" data-name="Path 1180" d="M105.089,233.293a6.564,6.564,0,0,1-1.74.28,2.289,2.289,0,0,1-2.549-2.3,2.9,2.9,0,0,1,2.989-2.969,2.046,2.046,0,0,1,2.282,2.191,5.444,5.444,0,0,1-.133.955h-3.511c.02.54.276.965,1.331.965a3.964,3.964,0,0,0,1.556-.353Zm-.44-2.824c0-.54-.2-1-.839-1a1.274,1.274,0,0,0-1.269,1Z" transform="translate(-92.561 -226.328)" fill="#fff"/>
      <path id="Path_1181" data-name="Path 1181" d="M156.7,215.968h.778l.358-1.568h1.709l-.358,1.568h1.382l-.215,1.225h-1.453l-.307,1.4a4.481,4.481,0,0,0-.143.872c0,.343.409.529.757.529a2.148,2.148,0,0,0,.553-.135l-.194,1.183a6.364,6.364,0,0,1-1.064.1c-.88,0-1.76-.426-1.76-1.495a4.928,4.928,0,0,1,.154-1.028l.307-1.412H156.5Z" transform="translate(-140.967 -213.87)" fill="#fff"/>
      <path id="Path_1182" data-name="Path 1182" d="M206.933,234.535h-2l-.051-3.644h-.02l-1.719,3.644H201.14l-.44-5.035h1.709l.031,3.644h.02l1.648-3.644h2.078l.02,3.644h.02l1.607-3.644h1.74Z" transform="translate(-179.9 -227.403)" fill="#fff"/>
      <path id="Path_1183" data-name="Path 1183" d="M286.769,233.574c-1.832,0-2.569-1.028-2.569-2.3a2.927,2.927,0,0,1,3.214-2.969,2.26,2.26,0,0,1,2.569,2.253C289.973,232.66,288.622,233.574,286.769,233.574Zm.553-4.049c-.829,0-1.351.914-1.351,1.713,0,.685.348,1.132.931,1.121.8,0,1.31-.685,1.31-1.817C288.212,230.013,287.987,229.525,287.322,229.525Z" transform="translate(-253.923 -226.328)" fill="#fff"/>
      <path id="Path_1184" data-name="Path 1184" d="M345,228.425l-.194,1.028h.021a1.83,1.83,0,0,1,1.535-1.152,1.755,1.755,0,0,1,.716.135l-.4,1.536a1.2,1.2,0,0,0-.788-.208c-.716,0-1.157.644-1.279,1.381l-.491,2.325H342.4l.788-3.717q.138-.638.215-1.308l1.6-.021Z" transform="translate(-305.504 -226.328)" fill="#fff"/>
      <path id="Path_1185" data-name="Path 1185" d="M386.246,209.3h1.74l-.911,4.215h.021l1.648-2.107H390.7l-2.057,2.419,1.279,2.606h-1.914l-1-2.492h-.02l-.532,2.492H384.7Z" transform="translate(-342.84 -209.3)" fill="#fff"/>
      <path id="Path_1186" data-name="Path 1186" d="M444.815,209.3h2.139c1.341.01,2.948.052,2.938,1.817a2.027,2.027,0,0,1-1.945,2.035v.021c.553.052.727.81.829,1.267l.491,1.993h-1.76l-.358-1.817c-.174-.934-.461-1-1.3-1h-.194l-.583,2.824H443.3Zm1.116,2.959h.737c.819,0,1.453-.2,1.464-.882,0-.509-.3-.727-.87-.737h-.993Z" transform="translate(-394.635 -209.3)" fill="#fff"/>
      <path id="Path_1187" data-name="Path 1187" d="M510.246,232.933l-.02-.021v.021a1.894,1.894,0,0,1-1.679.82c-1.064,0-1.658-.478-1.648-1.464.011-1.235,1.228-1.837,2.743-1.837.348,0,.686.031.931.052a.681.681,0,0,0,.021-.2c0-.363-.348-.654-.911-.654a3.064,3.064,0,0,0-1.607.4l.174-1.267a5.45,5.45,0,0,1,1.822-.291c1.187,0,2.149.467,2.139,1.713,0,.789-.44,1.921-.645,3.436h-1.4Zm-1.146-.343a1.308,1.308,0,0,0,1.3-1.194,2.453,2.453,0,0,0-.45-.031c-.819-.031-1.423.27-1.423.706A.552.552,0,0,0,509.1,232.59Z" transform="translate(-450.269 -226.507)" fill="#fff"/>
      <path id="Path_1188" data-name="Path 1188" d="M562.465,211.4h1.74l-1.065,5.035H561.4Zm.44-2.1h1.74l-.276,1.277h-1.74Z" transform="translate(-499.192 -209.3)" fill="#fff"/>
      <path id="Path_1189" data-name="Path 1189" d="M590.2,209.3h1.74l-1.5,7.132H588.7Z" transform="translate(-523.698 -209.3)" fill="#fff"/>
    </g>
    <g id="Component_14_1" data-name="Component 14 – 1" transform="translate(174.5 13)">
      <text id="OLE-T_App" data-name="OLE-T App" transform="translate(0 15)" fill="#fff" font-size="14" font-family="NetworkRailSans-Bold, Network Rail Sans" font-weight="700"><tspan x="0" y="0">OLE-T App</tspan></text>
    </g>
    <g id="Group_2659" data-name="Group 2659" transform="translate(-48 -20)">
      <g id="Component_67" data-name="Component 67" transform="translate(299 21)">
        <circle id="Ellipse_48-2" data-name="Ellipse 48" cx="22" cy="22" r="22" fill="#005172"/>
      </g>
      <g id="Icon_Search_White" transform="translate(321 43)">
        <g id="Group_2651" data-name="Group 2651" transform="translate(-10 -10)" clip-path="url(#clip-path)">
          <path id="Path_1249" data-name="Path 1249" d="M8.256,3.71a4.605,4.605,0,0,1,3.8,7.164l-.512.768-.768.512a4.605,4.605,0,1,1-2.558-8.4m0-3.71A8.315,8.315,0,1,0,12.9,15.223L17.68,20a1.6,1.6,0,1,0,2.26-2.26l-4.776-4.776A8.315,8.315,0,0,0,8.256,0" transform="translate(0.059 0)" fill="#fff"/>
        </g>
      </g>
    </g>
    <g id="Group_2657" data-name="Group 2657" transform="translate(1 -20)">
      <g id="Component_19_1" data-name="Component 19 – 1" transform="translate(348 21)">
        <circle id="Ellipse_48-3" data-name="Ellipse 48" cx="22" cy="22" r="22" fill="#005172"/>
      </g>
      <g id="Icon_User_White" transform="translate(369.595 43)">
        <g id="Group_2652" data-name="Group 2652" transform="translate(-7.604 -10)" clip-path="url(#clip-path-2)">
          <path id="Path_1250" data-name="Path 1250" d="M12.6,2.708c1.083,0,1.292,0,1.292,2.167,0,1.208-.708,2.167-1.292,2.167s-1.292-.958-1.292-2.167c0-2.167.208-2.167,1.292-2.167M12.6,0c-3.417,0-4,2.208-4,4.875S10.392,9.75,12.642,9.75s4.042-2.208,4.042-4.875S16.058,0,12.6,0" transform="translate(-5.017)" fill="#fff"/>
          <path id="Path_1251" data-name="Path 1251" d="M4.75,27.275a5.583,5.583,0,0,0,2.667.667h.417a5.583,5.583,0,0,0,2.625-.667c1.833.375,1.958.792,2.042,3.458a11.524,11.524,0,0,1-4.875.75,11.524,11.524,0,0,1-4.875-.75c.042-2.667.167-3.083,2-3.458M9.792,24.4a2.833,2.833,0,0,1-2,.833H7.375a2.833,2.833,0,0,1-2-.833C.75,25.233.083,26.567,0,31.15v.833s1.125,2.25,7.583,2.25,7.625-2.25,7.625-2.25v-.375a2.417,2.417,0,0,1,0-.333c-.083-4.708-.708-6.042-5.375-6.875" transform="translate(0 -14.233)" fill="#fff"/>
        </g>
      </g>
    </g>
    <g id="Group_2682" data-name="Group 2682" transform="translate(-8085 -10636)">
      <g id="Group_2678" data-name="Group 2678" transform="translate(8086 10616)">
        <g id="Component_67-2" data-name="Component 67" transform="translate(299 21)">
          <circle id="Ellipse_48-4" data-name="Ellipse 48" cx="22" cy="22" r="22" fill="#005172"/>
        </g>
      </g>
      <g id="Group_2655" data-name="Group 2655" transform="translate(8098 10627)">
        <g id="Component_67-3" data-name="Component 67" transform="translate(299 20)">
          <g id="Mask_Group_1" data-name="Mask Group 1" clip-path="url(#clip-path-3)">
            <g id="Icon_Offline" transform="translate(10 12)">
              <g id="Icon_Offline-2" data-name="Icon_Offline" transform="translate(-10 -8.333)" clip-path="url(#clip-path-4)">
                <path id="Path_1283" data-name="Path 1283" d="M.875,1.417,3.542,4.042A13.583,13.583,0,0,0,.167,6.5L0,6.667,2.083,8.75l.167-.167A10.708,10.708,0,0,1,5.708,6.25L7.333,7.875a8.75,8.75,0,0,0-3.625,2.167l-.083.083v.167L5.583,12.25l.167-.167a5.958,5.958,0,0,1,4.083-1.75l6.333,6.333,1.417-1.417L2.333,0Z" fill="#e35100"/>
                <path id="Path_1284" data-name="Path 1284" d="M19.858,29.7h0a3.917,3.917,0,0,0-2.792,1.167l-.167.167,2.958,2.958,2.958-2.958-.167-.167A3.917,3.917,0,0,0,19.858,29.7" transform="translate(-9.858 -17.325)" fill="#e35100"/>
                <path id="Path_1285" data-name="Path 1285" d="M32.375,20.542a8.792,8.792,0,0,0-4.042-2.333L27.5,18l3.833,3.833L32.5,20.667Z" transform="translate(-16.042 -10.5)" fill="#e35100"/>
                <path id="Path_1286" data-name="Path 1286" d="M29.283,9.887A13.917,13.917,0,0,0,16.617,6.1l-.417.083,2.583,2.583h.083A10.958,10.958,0,0,1,27.2,11.97l.167.167,2.083-2.083Z" transform="translate(-9.45 -3.387)" fill="#e35100"/>
              </g>
            </g>
          </g>
        </g>
      </g>
    </g>
  </g>
</svg>
