<svg xmlns="http://www.w3.org/2000/svg" xmlns:xlink="http://www.w3.org/1999/xlink" width="365" height="416" viewBox="0 0 365 416">
  <defs>
    <filter id="Rectangle_2270" x="0" y="0" width="365" height="416" filterUnits="userSpaceOnUse">
      <feOffset dy="1" input="SourceAlpha"/>
      <feGaussianBlur stdDeviation="3" result="blur"/>
      <feFlood flood-opacity="0.161"/>
      <feComposite operator="in" in2="blur"/>
      <feComposite in="SourceGraphic"/>
    </filter>
    <filter id="Rectangle_674" x="290" y="13" width="52" height="52" filterUnits="userSpaceOnUse">
      <feOffset dy="1" input="SourceAlpha"/>
      <feGaussianBlur stdDeviation="2" result="blur-2"/>
      <feFlood flood-opacity="0.102"/>
      <feComposite operator="in" in2="blur-2"/>
      <feComposite in="SourceGraphic"/>
    </filter>
    <filter id="Rectangle_674-2" x="232" y="13" width="52" height="52" filterUnits="userSpaceOnUse">
      <feOffset dy="1" input="SourceAlpha"/>
      <feGaussianBlur stdDeviation="2" result="blur-3"/>
      <feFlood flood-opacity="0.102"/>
      <feComposite operator="in" in2="blur-3"/>
      <feComposite in="SourceGraphic"/>
    </filter>
  </defs>
  <g id="Component_265" data-name="Component 265" transform="translate(9 8)">
    <g transform="matrix(1, 0, 0, 1, -9, -8)" filter="url(#Rectangle_2270)">
      <rect id="Rectangle_2270-2" data-name="Rectangle 2270" width="347" height="398" rx="4" transform="translate(9 8)" fill="#fff"/>
    </g>
    <text id="Previous_BWA_Surveys" data-name="Previous BWA Surveys" transform="translate(20 36)" fill="#939393" font-size="18" font-family="ArialMT, Arial"><tspan x="0" y="0">Previous BWA Surveys</tspan></text>
    <text id="Add_new_BWA_Survey" data-name="Add new BWA Survey" transform="translate(20 373)" fill="#1d7880" font-size="14" font-family="Arial-BoldMT, Arial" font-weight="700"><tspan x="0" y="0">Add new BWA Survey</tspan></text>
    <g transform="matrix(1, 0, 0, 1, -9, -8)" filter="url(#Rectangle_674)">
      <rect id="Rectangle_674-3" data-name="Rectangle 674" width="40" height="40" rx="2" transform="translate(296 18)" fill="#fff"/>
    </g>
    <g id="Group_3262" data-name="Group 3262" transform="translate(296.474 20.526)">
      <path id="Path_1145" data-name="Path 1145" d="M13.9,12.049a.953.953,0,0,0-.084.391l0,13.532-1.883-1.878a.952.952,0,0,0-1.309,0l-.372.372a.924.924,0,0,0,0,1.3l4.1,4.1a.911.911,0,0,0,.65.27h.006a.913.913,0,0,0,.652-.27l4.1-4.1a.925.925,0,0,0,0-1.3l-.372-.372a.93.93,0,0,0-1.3,0L16.2,26V12.432a.947.947,0,0,0-.939-.932h-.527a.892.892,0,0,0-.309.055" transform="translate(-9.987 -11.5)" fill="#1d7880"/>
      <path id="Path_1146" data-name="Path 1146" d="M28.977,28.5a.885.885,0,0,0,.309.055h.527a.947.947,0,0,0,.939-.932V18.878l1.9,1.9a.932.932,0,0,0,1.3,0l.372-.372a.926.926,0,0,0,0-1.306l-4.1-4.1a.911.911,0,0,0-.652-.27h0a.917.917,0,0,0-.653.27l-4.1,4.1a.925.925,0,0,0,0,1.306l.372.372a.953.953,0,0,0,1.309,0L28.374,18.9v6.109l0-.018v2.619a.953.953,0,0,0,.084.391" transform="translate(-13.689 -12.323)" fill="#1d7880"/>
    </g>
    <g transform="matrix(1, 0, 0, 1, -9, -8)" filter="url(#Rectangle_674-2)">
      <rect id="Rectangle_674-4" data-name="Rectangle 674" width="40" height="40" rx="2" transform="translate(238 18)" fill="#fff"/>
    </g>
    <path id="Path_604" data-name="Path 604" d="M-37.9-537.867a.743.743,0,0,0-.719-.486H-54.471a.722.722,0,0,0-.718.486.736.736,0,0,0,.162.88l6.163,6.047v6.024a.931.931,0,0,0,.185.648l3.174,3.174a.685.685,0,0,0,.556.232.724.724,0,0,0,.3-.069.73.73,0,0,0,.417-.765v-9.244l6.163-6.047A.7.7,0,0,0-37.9-537.867Zm-7.855,6.285v8.068l-1.573-1.573v-6.5l-5.341-5.24h12.255Z" transform="translate(295.365 559.454)" fill="#1d7880" stroke="#1d7880" stroke-width="0.5"/>
    <g id="Group_4651" data-name="Group 4651" transform="translate(-1787 -1082)">
      <rect id="Rectangle_2360" data-name="Rectangle 2360" width="307" height="68" transform="translate(1807 1140)" fill="#b7b7b7" opacity="0"/>
      <line id="Line_132" data-name="Line 132" x2="307" transform="translate(1807 1207.5)" fill="none" stroke="#ccc" stroke-width="1"/>
      <g id="Group_4650" data-name="Group 4650">
        <text id="On_12_11_2019_15:35_hrs_By_Roger_Simmons" data-name="On 12/11/2019 | 15:35 hrs
By Roger Simmons" transform="translate(1807 1169)" font-size="14" font-family="ArialMT, Arial" opacity="0.8"><tspan x="0" y="0">On 12/11/2019 | 15:35 hrs</tspan><tspan x="0" y="20">By Roger Simmons</tspan></text>
        <g id="small-down" transform="translate(2114 1169) rotate(90)">
          <path id="Path_26" data-name="Path 26" d="M5.5,0,0,5.559,1.426,7,5.5,2.882,9.574,7,11,5.559Z" fill="#1d7880"/>
        </g>
      </g>
    </g>
    <g id="Group_4652" data-name="Group 4652" transform="translate(-1787 -1014)">
      <rect id="Rectangle_2360-2" data-name="Rectangle 2360" width="307" height="68" transform="translate(1807 1140)" fill="#b7b7b7" opacity="0"/>
      <line id="Line_132-2" data-name="Line 132" x2="307" transform="translate(1807 1207.5)" fill="none" stroke="#ccc" stroke-width="1"/>
      <g id="Group_4650-2" data-name="Group 4650">
        <text id="On_12_11_2019_15:35_hrs_By_Roger_Simmons-2" data-name="On 12/11/2019 | 15:35 hrs
By Roger Simmons" transform="translate(1807 1169)" font-size="14" font-family="ArialMT, Arial" opacity="0.8"><tspan x="0" y="0">On 12/11/2019 | 15:35 hrs</tspan><tspan x="0" y="20">By Roger Simmons</tspan></text>
        <g id="small-down-2" data-name="small-down" transform="translate(2114 1169) rotate(90)">
          <path id="Path_26-2" data-name="Path 26" d="M5.5,0,0,5.559,1.426,7,5.5,2.882,9.574,7,11,5.559Z" fill="#1d7880"/>
        </g>
      </g>
    </g>
    <g id="Group_4653" data-name="Group 4653" transform="translate(-1787 -946)">
      <rect id="Rectangle_2360-3" data-name="Rectangle 2360" width="307" height="68" transform="translate(1807 1140)" fill="#b7b7b7" opacity="0"/>
      <line id="Line_132-3" data-name="Line 132" x2="307" transform="translate(1807 1207.5)" fill="none" stroke="#ccc" stroke-width="1"/>
      <g id="Group_4650-3" data-name="Group 4650">
        <text id="On_12_11_2019_15:35_hrs_By_Roger_Simmons-3" data-name="On 12/11/2019 | 15:35 hrs
By Roger Simmons" transform="translate(1807 1169)" font-size="14" font-family="ArialMT, Arial" opacity="0.8"><tspan x="0" y="0">On 12/11/2019 | 15:35 hrs</tspan><tspan x="0" y="20">By Roger Simmons</tspan></text>
        <g id="small-down-3" data-name="small-down" transform="translate(2114 1169) rotate(90)">
          <path id="Path_26-3" data-name="Path 26" d="M5.5,0,0,5.559,1.426,7,5.5,2.882,9.574,7,11,5.559Z" fill="#1d7880"/>
        </g>
      </g>
    </g>
    <g id="Group_4654" data-name="Group 4654" transform="translate(-1787 -878)">
      <rect id="Rectangle_2360-4" data-name="Rectangle 2360" width="307" height="68" transform="translate(1807 1140)" fill="#b7b7b7" opacity="0"/>
      <line id="Line_132-4" data-name="Line 132" x2="307" transform="translate(1807 1207.5)" fill="none" stroke="#ccc" stroke-width="1"/>
      <g id="Group_4650-4" data-name="Group 4650">
        <text id="On_12_11_2019_15:35_hrs_By_Roger_Simmons-4" data-name="On 12/11/2019 | 15:35 hrs
By Roger Simmons" transform="translate(1807 1169)" font-size="14" font-family="ArialMT, Arial" opacity="0.8"><tspan x="0" y="0">On 12/11/2019 | 15:35 hrs</tspan><tspan x="0" y="20">By Roger Simmons</tspan></text>
        <g id="small-down-4" data-name="small-down" transform="translate(2114 1169) rotate(90)">
          <path id="Path_26-4" data-name="Path 26" d="M5.5,0,0,5.559,1.426,7,5.5,2.882,9.574,7,11,5.559Z" fill="#1d7880"/>
        </g>
      </g>
    </g>
  </g>
</svg>
