<svg id="Component_115" data-name="Component 115" xmlns="http://www.w3.org/2000/svg" width="372" height="640" viewBox="0 0 372 640">
  <rect id="Head.BG" width="372" height="45" fill="#4f99bb"/>
  <rect id="Rectangle_739" data-name="Rectangle 739" width="372" height="45" transform="translate(0 55)" fill="#f4f4f4"/>
  <rect id="Rectangle_761" data-name="Rectangle 761" width="372" height="45" transform="translate(0 415)" fill="#f4f4f4"/>
  <rect id="Rectangle_746" data-name="Rectangle 746" width="372" height="45" transform="translate(0 235)" fill="#f4f4f4"/>
  <rect id="Rectangle_757" data-name="Rectangle 757" width="372" height="45" transform="translate(0 595)" fill="#f4f4f4"/>
  <rect id="Rectangle_741" data-name="Rectangle 741" width="372" height="45" transform="translate(0 145)" fill="#f4f4f4"/>
  <rect id="Rectangle_759" data-name="Rectangle 759" width="372" height="45" transform="translate(0 505)" fill="#f4f4f4"/>
  <rect id="Rectangle_744" data-name="Rectangle 744" width="372" height="45" transform="translate(0 325)" fill="#f4f4f4"/>
  <rect id="Rectangle_740" data-name="Rectangle 740" width="372" height="45" transform="translate(0 100)" fill="#f4f4f4" opacity="0"/>
  <rect id="Rectangle_760" data-name="Rectangle 760" width="372" height="45" transform="translate(0 460)" fill="#f4f4f4" opacity="0"/>
  <rect id="Rectangle_745" data-name="Rectangle 745" width="372" height="45" transform="translate(0 280)" fill="#f4f4f4" opacity="0"/>
  <rect id="Rectangle_742" data-name="Rectangle 742" width="372" height="45" transform="translate(0 190)" fill="#f4f4f4" opacity="0"/>
  <rect id="Rectangle_758" data-name="Rectangle 758" width="372" height="45" transform="translate(0 550)" fill="#f4f4f4" opacity="0"/>
  <rect id="Rectangle_743" data-name="Rectangle 743" width="372" height="45" transform="translate(0 370)" fill="#f4f4f4" opacity="0"/>
  <text id="C_014_05_" data-name="C/ 014/ 05 " transform="translate(15 81)" fill="#4d4f5c" font-size="14" font-family="ArialMT, Arial"><tspan x="0" y="0">C/ 014/ 05 </tspan></text>
  <text id="C_014_05_2" data-name="C/ 014/ 05 " transform="translate(15 441)" fill="#4d4f5c" font-size="14" font-family="ArialMT, Arial"><tspan x="0" y="0">C/ 014/ 05 </tspan></text>
  <text id="C_098_10" data-name="C 098/10" transform="translate(15 261)" fill="#4d4f5c" font-size="14" font-family="ArialMT, Arial"><tspan x="0" y="0">C 098/10</tspan></text>
  <text id="C_098_10-2" data-name="C 098/10" transform="translate(15 621)" fill="#4d4f5c" font-size="14" font-family="ArialMT, Arial"><tspan x="0" y="0">C 098/10</tspan></text>
  <text id="C_089_03" data-name="C 089/03" transform="translate(15 171)" fill="#4d4f5c" font-size="14" font-family="ArialMT, Arial"><tspan x="0" y="0">C 089/03</tspan></text>
  <text id="C_089_03-2" data-name="C 089/03" transform="translate(15 531)" fill="#4d4f5c" font-size="14" font-family="ArialMT, Arial"><tspan x="0" y="0">C 089/03</tspan></text>
  <text id="C_088_13_" data-name="C 088/13 " transform="translate(15 351)" fill="#4d4f5c" font-size="14" font-family="ArialMT, Arial"><tspan x="0" y="0">C 088/13 </tspan></text>
  <text id="EC073_22_" data-name="EC073/22 " transform="translate(15 126)" fill="#4d4f5c" font-size="14" font-family="ArialMT, Arial"><tspan x="0" y="0">EC073/22 </tspan></text>
  <text id="EC073_22_2" data-name="EC073/22 " transform="translate(15 486)" fill="#4d4f5c" font-size="14" font-family="ArialMT, Arial"><tspan x="0" y="0">EC073/22 </tspan></text>
  <text id="C_098_10-3" data-name="C 098/10" transform="translate(15 306)" fill="#4d4f5c" font-size="14" font-family="ArialMT, Arial"><tspan x="0" y="0">C 098/10</tspan></text>
  <text id="C_095_24_" data-name="C 095/24 " transform="translate(15 216)" fill="#4d4f5c" font-size="14" font-family="ArialMT, Arial"><tspan x="0" y="0">C 095/24 </tspan></text>
  <text id="C_095_24_2" data-name="C 095/24 " transform="translate(15 576)" fill="#4d4f5c" font-size="14" font-family="ArialMT, Arial"><tspan x="0" y="0">C 095/24 </tspan></text>
  <text id="C_092_25" data-name="C 092/25" transform="translate(15 396)" fill="#4d4f5c" font-size="14" font-family="ArialMT, Arial"><tspan x="0" y="0">C 092/25</tspan></text>
  <text id="Assets" transform="translate(15 28)" fill="#fff" font-size="14" font-family="Arial-BoldMT, Arial" font-weight="700"><tspan x="0" y="0">Assets</tspan></text>
  <text id="ABC_PQR" data-name="ABC PQR" transform="translate(110 81)" fill="#4d4f5c" font-size="14" font-family="ArialMT, Arial"><tspan x="0" y="0">ABC PQR</tspan></text>
  <text id="ABC_PQR-2" data-name="ABC PQR" transform="translate(110 441)" fill="#4d4f5c" font-size="14" font-family="ArialMT, Arial"><tspan x="0" y="0">ABC PQR</tspan></text>
  <text id="ABC_PQR-3" data-name="ABC PQR" transform="translate(110 261)" fill="#4d4f5c" font-size="14" font-family="ArialMT, Arial"><tspan x="0" y="0">ABC PQR</tspan></text>
  <text id="ABC_PQR-4" data-name="ABC PQR" transform="translate(110 621)" fill="#4d4f5c" font-size="14" font-family="ArialMT, Arial"><tspan x="0" y="0">ABC PQR</tspan></text>
  <text id="ABC_PQR-5" data-name="ABC PQR" transform="translate(110 171)" fill="#4d4f5c" font-size="14" font-family="ArialMT, Arial"><tspan x="0" y="0">ABC PQR</tspan></text>
  <text id="ABC_PQR-6" data-name="ABC PQR" transform="translate(110 531)" fill="#4d4f5c" font-size="14" font-family="ArialMT, Arial"><tspan x="0" y="0">ABC PQR</tspan></text>
  <text id="ABC_PQR-7" data-name="ABC PQR" transform="translate(110 351)" fill="#4d4f5c" font-size="14" font-family="ArialMT, Arial"><tspan x="0" y="0">ABC PQR</tspan></text>
  <text id="ABC_PQR-8" data-name="ABC PQR" transform="translate(110 126)" fill="#4d4f5c" font-size="14" font-family="ArialMT, Arial"><tspan x="0" y="0">ABC PQR</tspan></text>
  <text id="ABC_PQR-9" data-name="ABC PQR" transform="translate(110 486)" fill="#4d4f5c" font-size="14" font-family="ArialMT, Arial"><tspan x="0" y="0">ABC PQR</tspan></text>
  <text id="ABC_PQR-10" data-name="ABC PQR" transform="translate(110 306)" fill="#4d4f5c" font-size="14" font-family="ArialMT, Arial"><tspan x="0" y="0">ABC PQR</tspan></text>
  <text id="ABC_PQR-11" data-name="ABC PQR" transform="translate(110 216)" fill="#4d4f5c" font-size="14" font-family="ArialMT, Arial"><tspan x="0" y="0">ABC PQR</tspan></text>
  <text id="ABC_PQR-12" data-name="ABC PQR" transform="translate(110 576)" fill="#4d4f5c" font-size="14" font-family="ArialMT, Arial"><tspan x="0" y="0">ABC PQR</tspan></text>
  <text id="ABC_PQR-13" data-name="ABC PQR" transform="translate(110 396)" fill="#4d4f5c" font-size="14" font-family="ArialMT, Arial"><tspan x="0" y="0">ABC PQR</tspan></text>
  <text id="ELR" transform="translate(110 28)" fill="#fff" font-size="14" font-family="Arial-BoldMT, Arial" font-weight="700"><tspan x="0" y="0">ELR</tspan></text>
  <text id="_10_Oct_2019" data-name="10 Oct 2019" transform="translate(201 81)" fill="#4d4f5c" font-size="14" font-family="ArialMT, Arial"><tspan x="0" y="0">10 Oct 2019</tspan></text>
  <text id="_10_Oct_2019-2" data-name="10 Oct 2019" transform="translate(201 441)" fill="#4d4f5c" font-size="14" font-family="ArialMT, Arial"><tspan x="0" y="0">10 Oct 2019</tspan></text>
  <text id="_10_Oct_2019-3" data-name="10 Oct 2019" transform="translate(201 261)" fill="#4d4f5c" font-size="14" font-family="ArialMT, Arial"><tspan x="0" y="0">10 Oct 2019</tspan></text>
  <text id="_10_Oct_2019-4" data-name="10 Oct 2019" transform="translate(201 621)" fill="#4d4f5c" font-size="14" font-family="ArialMT, Arial"><tspan x="0" y="0">10 Oct 2019</tspan></text>
  <text id="_10_Oct_2019-5" data-name="10 Oct 2019" transform="translate(201 171)" fill="#4d4f5c" font-size="14" font-family="ArialMT, Arial"><tspan x="0" y="0">10 Oct 2019</tspan></text>
  <text id="_10_Oct_2019-6" data-name="10 Oct 2019" transform="translate(201 531)" fill="#4d4f5c" font-size="14" font-family="ArialMT, Arial"><tspan x="0" y="0">10 Oct 2019</tspan></text>
  <text id="_10_Oct_2019-7" data-name="10 Oct 2019" transform="translate(201 351)" fill="#4d4f5c" font-size="14" font-family="ArialMT, Arial"><tspan x="0" y="0">10 Oct 2019</tspan></text>
  <text id="_10_Oct_2019-8" data-name="10 Oct 2019" transform="translate(201 126)" fill="#4d4f5c" font-size="14" font-family="ArialMT, Arial"><tspan x="0" y="0">10 Oct 2019</tspan></text>
  <text id="_10_Oct_2019-9" data-name="10 Oct 2019" transform="translate(201 486)" fill="#4d4f5c" font-size="14" font-family="ArialMT, Arial"><tspan x="0" y="0">10 Oct 2019</tspan></text>
  <text id="_10_Oct_2019-10" data-name="10 Oct 2019" transform="translate(201 306)" fill="#4d4f5c" font-size="14" font-family="ArialMT, Arial"><tspan x="0" y="0">10 Oct 2019</tspan></text>
  <text id="_10_Oct_2019-11" data-name="10 Oct 2019" transform="translate(201 216)" fill="#4d4f5c" font-size="14" font-family="ArialMT, Arial"><tspan x="0" y="0">10 Oct 2019</tspan></text>
  <text id="_10_Oct_2019-12" data-name="10 Oct 2019" transform="translate(201 576)" fill="#4d4f5c" font-size="14" font-family="ArialMT, Arial"><tspan x="0" y="0">10 Oct 2019</tspan></text>
  <text id="_10_Oct_2019-13" data-name="10 Oct 2019" transform="translate(201 396)" fill="#4d4f5c" font-size="14" font-family="ArialMT, Arial"><tspan x="0" y="0">10 Oct 2019</tspan></text>
  <text id="Last_Surveyed" data-name="Last Surveyed" transform="translate(201 28)" fill="#fff" font-size="14" font-family="Arial-BoldMT, Arial" font-weight="700"><tspan x="0" y="0">Last Surveyed</tspan></text>
  <circle id="Ellipse_298" data-name="Ellipse 298" cx="11" cy="11" r="11" transform="translate(335 66)" fill="#e04348"/>
  <circle id="Ellipse_374" data-name="Ellipse 374" cx="11" cy="11" r="11" transform="translate(335 426)" fill="#e04348"/>
  <circle id="Ellipse_321" data-name="Ellipse 321" cx="11" cy="11" r="11" transform="translate(305 66)" fill="#8dca61"/>
  <circle id="Ellipse_375" data-name="Ellipse 375" cx="11" cy="11" r="11" transform="translate(305 426)" fill="#8dca61"/>
  <circle id="Ellipse_356" data-name="Ellipse 356" cx="11" cy="11" r="11" transform="translate(335 111)" fill="#8dca61"/>
  <circle id="Ellipse_370" data-name="Ellipse 370" cx="11" cy="11" r="11" transform="translate(335 471)" fill="#8dca61"/>
  <circle id="Ellipse_357" data-name="Ellipse 357" cx="11" cy="11" r="11" transform="translate(305 111)" fill="#8dca61"/>
  <circle id="Ellipse_371" data-name="Ellipse 371" cx="11" cy="11" r="11" transform="translate(305 471)" fill="#8dca61"/>
  <circle id="Ellipse_347" data-name="Ellipse 347" cx="11" cy="11" r="11" transform="translate(335 111)" fill="#fbcd42"/>
  <circle id="Ellipse_372" data-name="Ellipse 372" cx="11" cy="11" r="11" transform="translate(335 471)" fill="#fbcd42"/>
  <circle id="Ellipse_346" data-name="Ellipse 346" cx="11" cy="11" r="11" transform="translate(305 111)" fill="#8dca61"/>
  <circle id="Ellipse_373" data-name="Ellipse 373" cx="11" cy="11" r="11" transform="translate(305 471)" fill="#8dca61"/>
  <circle id="Ellipse_349" data-name="Ellipse 349" cx="11" cy="11" r="11" transform="translate(335 156)" fill="#8dca61"/>
  <circle id="Ellipse_368" data-name="Ellipse 368" cx="11" cy="11" r="11" transform="translate(335 516)" fill="#8dca61"/>
  <circle id="Ellipse_348" data-name="Ellipse 348" cx="11" cy="11" r="11" transform="translate(305 156)" fill="#fbcd42"/>
  <circle id="Ellipse_369" data-name="Ellipse 369" cx="11" cy="11" r="11" transform="translate(305 516)" fill="#fbcd42"/>
  <circle id="Ellipse_351" data-name="Ellipse 351" cx="11" cy="11" r="11" transform="translate(335 201)" fill="#8dca61"/>
  <circle id="Ellipse_366" data-name="Ellipse 366" cx="11" cy="11" r="11" transform="translate(335 561)" fill="#8dca61"/>
  <circle id="Ellipse_350" data-name="Ellipse 350" cx="11" cy="11" r="11" transform="translate(305 201)" fill="#8dca61"/>
  <circle id="Ellipse_367" data-name="Ellipse 367" cx="11" cy="11" r="11" transform="translate(305 561)" fill="#8dca61"/>
  <circle id="Ellipse_353" data-name="Ellipse 353" cx="11" cy="11" r="11" transform="translate(335 246)" fill="#e04348"/>
  <circle id="Ellipse_364" data-name="Ellipse 364" cx="11" cy="11" r="11" transform="translate(335 606)" fill="#e04348"/>
  <circle id="Ellipse_352" data-name="Ellipse 352" cx="11" cy="11" r="11" transform="translate(305 246)" fill="#e04348"/>
  <circle id="Ellipse_365" data-name="Ellipse 365" cx="11" cy="11" r="11" transform="translate(305 606)" fill="#e04348"/>
  <circle id="Ellipse_355" data-name="Ellipse 355" cx="11" cy="11" r="11" transform="translate(335 291)" fill="#fbcd42"/>
  <circle id="Ellipse_354" data-name="Ellipse 354" cx="11" cy="11" r="11" transform="translate(305 291)" fill="#e04348"/>
  <circle id="Ellipse_355-2" data-name="Ellipse 355" cx="11" cy="11" r="11" transform="translate(335 336)" fill="#8dca61"/>
  <circle id="Ellipse_354-2" data-name="Ellipse 354" cx="11" cy="11" r="11" transform="translate(305 336)" fill="#8dca61"/>
  <circle id="Ellipse_355-3" data-name="Ellipse 355" cx="11" cy="11" r="11" transform="translate(335 381)" fill="#8dca61"/>
  <circle id="Ellipse_354-3" data-name="Ellipse 354" cx="11" cy="11" r="11" transform="translate(305 381)" fill="#fbcd42"/>
  <path id="Subtraction_3" data-name="Subtraction 3" d="M10.5,21A10.5,10.5,0,0,1,3.075,3.075,10.5,10.5,0,1,1,10.5,21ZM9.59,10.32a.142.142,0,0,1,.12.052c.062.079.058.251-.01.528l-.38,1.53-.84,3.387a1.145,1.145,0,0,0,.12.874,1.047,1.047,0,0,0,.652.477l.11.028a1.156,1.156,0,0,0,.22.031l0,.023.05-.023a2.075,2.075,0,0,0,.851-.334l.231-.16.006,0c.934-.648,2.1-1.455,1.914-1.854a.245.245,0,0,0-.241-.155,1.407,1.407,0,0,0-.551.193l-.036.018a1.316,1.316,0,0,1-.466.175.136.136,0,0,1-.115-.049c-.061-.078-.056-.25.013-.528l.38-1.53.84-3.387a1.125,1.125,0,0,0-.821-1.364l-.11-.027a1.156,1.156,0,0,0-.22-.031V8.167l-.049.022a2.071,2.071,0,0,0-.851.335l-.129.09c-.974.678-2.187,1.521-2,1.934a.246.246,0,0,0,.244.155,1.447,1.447,0,0,0,.557-.191l.034-.017A1.355,1.355,0,0,1,9.59,10.32Zm1.491-5.969a1.576,1.576,0,1,0,1.576,1.576A1.578,1.578,0,0,0,11.081,4.352Z" transform="translate(336 12)" fill="#fff"/>
</svg>
