<svg xmlns="http://www.w3.org/2000/svg" width="41.43" height="36.67" viewBox="0 0 41.43 36.67">
  <g id="My_Jobs_Icons-01" data-name="My Jobs_Icons-01" transform="translate(0.75 0.75)">
    <g id="Group_2385" data-name="Group 2385" transform="translate(3.34)">
      <path id="Path_1209" data-name="Path 1209" d="M15.88,38.23a17.58,17.58,0,0,0,33.24,0Z" transform="translate(-15.88 -14.92)" fill="#1a7e7d" stroke="#010101" stroke-linecap="round" stroke-linejoin="round" stroke-width="1.5"/>
      <path id="Path_1210" data-name="Path 1210" d="M49.12,26.77a17.58,17.58,0,0,0-33.24,0Z" transform="translate(-15.88 -14.92)" fill="#1a7e7d" stroke="#010101" stroke-linecap="round" stroke-linejoin="round" stroke-width="1.5"/>
    </g>
    <rect id="Rectangle_580" data-name="Rectangle 580" width="39.93" height="11.47" rx="1.32" transform="translate(0 11.85)" fill="#fff" stroke="#010101" stroke-linecap="round" stroke-linejoin="round" stroke-width="1.5"/>
    <path id="Path_1211" data-name="Path 1211" d="M42.7,26.77a11.69,11.69,0,0,0-20.4,0Z" transform="translate(-12.54 -14.92)" fill="#cbcbcb" stroke="#010101" stroke-linecap="round" stroke-linejoin="round" stroke-width="1.5"/>
    <path id="Path_1212" data-name="Path 1212" d="M22.3,38.23a11.69,11.69,0,0,0,20.4,0Z" transform="translate(-12.54 -14.92)" fill="#cbcbcb" stroke="#010101" stroke-linecap="round" stroke-linejoin="round" stroke-width="1.5"/>
    <line id="Line_90" data-name="Line 90" x2="19.96" transform="translate(0 17.58)" fill="#fff" stroke="#010101" stroke-linecap="round" stroke-linejoin="round" stroke-width="1.5"/>
    <line id="Line_91" data-name="Line 91" x2="34.98" transform="translate(2.47 35.17)" fill="#fff" stroke="#010101" stroke-linecap="round" stroke-linejoin="round" stroke-width="1.5"/>
  </g>
</svg>
