<svg xmlns="http://www.w3.org/2000/svg" width="66.164" height="42.534" viewBox="0 0 66.164 42.534">
  <g id="iconfinder_icon-upload_211937" transform="translate(0 0)">
    <path id="iconfinder_icon-upload_211937-2" data-name="iconfinder_icon-upload_211937" d="M86.069,129.9c0-.177.03-.354.03-.532A17.225,17.225,0,0,0,69.011,112a17.035,17.035,0,0,0-15.4,9.9,8.749,8.749,0,0,0-3.958-.96,8.861,8.861,0,0,0-8.684,7.458,13.458,13.458,0,0,0,4.253,26.141H60.356V142.719H53.238l11.845-12.361L76.927,142.7H69.808v11.815H86.1a12.312,12.312,0,0,0-.03-24.62Z" transform="translate(-32 -112)" fill="#1d7880"/>
  </g>
</svg>
