<svg xmlns="http://www.w3.org/2000/svg" xmlns:xlink="http://www.w3.org/1999/xlink" width="384" height="56" viewBox="0 0 384 56">
  <defs>
    <filter id="Rectangle_1633" x="0" y="0" width="384" height="56" filterUnits="userSpaceOnUse">
      <feOffset dy="2" input="SourceAlpha"/>
      <feGaussianBlur stdDeviation="2" result="blur"/>
      <feFlood flood-opacity="0.102"/>
      <feComposite operator="in" in2="blur"/>
      <feComposite in="SourceGraphic"/>
    </filter>
    <clipPath id="clip-path">
      <rect id="Rectangle_1624" data-name="Rectangle 1624" width="21" height="21" transform="translate(0)" fill="none"/>
    </clipPath>
    <clipPath id="clip-path-2">
      <rect id="Rectangle_1631" data-name="Rectangle 1631" width="18" height="18" transform="translate(0 -0.258)" fill="none"/>
    </clipPath>
  </defs>
  <g id="Component_111" data-name="Component 111" transform="translate(6 4)">
    <g transform="matrix(1, 0, 0, 1, -6, -4)" filter="url(#Rectangle_1633)">
      <rect id="Rectangle_1633-2" data-name="Rectangle 1633" width="372" height="44" rx="22" transform="translate(6 4)" fill="#fff"/>
    </g>
    <rect id="Rectangle_1634" data-name="Rectangle 1634" width="1" height="24" transform="translate(327 10)" opacity="0.2"/>
    <g id="Group_2754" data-name="Group 2754" transform="translate(-22 -278)">
      <rect id="Rectangle_1630" data-name="Rectangle 1630" width="44" height="44" rx="22" transform="translate(350 278)" fill="#fff"/>
      <g id="Icon_search_Active" transform="translate(372.5 300.5)">
        <g id="Group_2744" data-name="Group 2744" transform="translate(-10.5 -10.5)" clip-path="url(#clip-path)">
          <path id="Path_1397" data-name="Path 1397" d="M8.542,3.837a4.763,4.763,0,0,1,3.925,7.409l-.529.794-.794.529A4.763,4.763,0,1,1,8.5,3.881M8.5.044a8.6,8.6,0,1,0,4.851,15.7l4.94,4.94a1.653,1.653,0,1,0,2.337-2.337l-4.94-4.94A8.6,8.6,0,0,0,8.542,0" transform="translate(0.313 0)" fill="#1d7880"/>
        </g>
      </g>
    </g>
    <g id="Group_2755" data-name="Group 2755" transform="translate(-21 -302)">
      <rect id="Rectangle_1632" data-name="Rectangle 1632" width="45" height="44" transform="translate(303 302)" fill="#fff"/>
      <g id="Icon_Close2" transform="translate(325.537 323.537)">
        <g id="Group_2752" data-name="Group 2752" transform="translate(-9 -9)" clip-path="url(#clip-path-2)">
          <path id="Path_1402" data-name="Path 1402" d="M8.777,0a8.777,8.777,0,1,0,8.777,8.777A8.777,8.777,0,0,0,8.777,0m4.791,11.812-1.755,1.755L8.777,10.532,5.742,13.568,3.986,11.812,7.022,8.777,3.986,5.742,5.742,3.986,8.777,7.022l3.035-3.035,1.755,1.755L10.532,8.777Z" transform="translate(0.093 0.353)" fill="#1d7880"/>
        </g>
      </g>
    </g>
    <text id="Name" transform="translate(15 27)" font-size="14" font-family="ArialMT, Arial"><tspan x="0" y="0">EACR12984</tspan></text>
  </g>
</svg>
