<svg xmlns="http://www.w3.org/2000/svg" xmlns:xlink="http://www.w3.org/1999/xlink" width="365" height="778" viewBox="0 0 365 778">
  <defs>
    <filter id="Rectangle_2166" x="0" y="0" width="365" height="162" filterUnits="userSpaceOnUse">
      <feOffset dy="1" input="SourceAlpha"/>
      <feGaussianBlur stdDeviation="3" result="blur"/>
      <feFlood flood-opacity="0.161"/>
      <feComposite operator="in" in2="blur"/>
      <feComposite in="SourceGraphic"/>
    </filter>
    <filter id="Rectangle_2166-2" x="0" y="154" width="365" height="162" filterUnits="userSpaceOnUse">
      <feOffset dy="1" input="SourceAlpha"/>
      <feGaussianBlur stdDeviation="3" result="blur-2"/>
      <feFlood flood-opacity="0.161"/>
      <feComposite operator="in" in2="blur-2"/>
      <feComposite in="SourceGraphic"/>
    </filter>
    <filter id="Rectangle_2166-3" x="0" y="462" width="365" height="162" filterUnits="userSpaceOnUse">
      <feOffset dy="1" input="SourceAlpha"/>
      <feGaussianBlur stdDeviation="3" result="blur-3"/>
      <feFlood flood-opacity="0.161"/>
      <feComposite operator="in" in2="blur-3"/>
      <feComposite in="SourceGraphic"/>
    </filter>
    <filter id="Rectangle_2308" x="0" y="616" width="365" height="162" filterUnits="userSpaceOnUse">
      <feOffset dy="1" input="SourceAlpha"/>
      <feGaussianBlur stdDeviation="3" result="blur-4"/>
      <feFlood flood-opacity="0.161"/>
      <feComposite operator="in" in2="blur-4"/>
      <feComposite in="SourceGraphic"/>
    </filter>
    <filter id="Rectangle_2166-4" x="0" y="308" width="365" height="162" filterUnits="userSpaceOnUse">
      <feOffset dy="1" input="SourceAlpha"/>
      <feGaussianBlur stdDeviation="3" result="blur-5"/>
      <feFlood flood-opacity="0.161"/>
      <feComposite operator="in" in2="blur-5"/>
      <feComposite in="SourceGraphic"/>
    </filter>
  </defs>
  <g id="Component_366" data-name="Component 366" transform="translate(9 8)">
    <g transform="matrix(1, 0, 0, 1, -9, -8)" filter="url(#Rectangle_2166)">
      <rect id="Rectangle_2166-5" data-name="Rectangle 2166" width="347" height="144" rx="2" transform="translate(9 8)" fill="#fff"/>
    </g>
    <text id="Structure_ID" data-name="Structure ID" transform="translate(10 24)" fill="#3f3f42" font-size="16" font-family="ArialMT, Arial" opacity="0.8"><tspan x="0" y="0">Structure ID</tspan></text>
    <text id="WG011_06" data-name="WG011/06" transform="translate(10 45)" fill="#333" font-size="14" font-family="Arial-BoldMT, Arial" font-weight="700"><tspan x="0" y="0">WG011/06</tspan></text>
    <text id="Wire_Run_ID_ELR_Track_ID_Last_Surveyed" data-name="Wire Run ID
ELR
Track ID
Last Surveyed" transform="translate(10 71)" fill="#3f3f42" font-size="14" font-family="ArialMT, Arial" opacity="0.8"><tspan x="0" y="0">Wire Run ID</tspan><tspan x="0" y="20">ELR</tspan><tspan x="0" y="40">Track ID</tspan><tspan x="0" y="60">Last Surveyed</tspan></text>
    <text id=":_:_:_:" data-name=":
:
:
:" transform="translate(104 71)" fill="#3f3f42" font-size="14" font-family="ArialMT, Arial" opacity="0.8"><tspan x="0" y="0">:</tspan><tspan x="0" y="20">:</tspan><tspan x="0" y="40">:</tspan><tspan x="0" y="60">:</tspan></text>
    <text id="CE26_HDT_1100_Jun_02_2020_09:15" data-name="CE26
HDT
1100
Jun 02 2020, 09:15" transform="translate(113 71)" fill="#3f3f42" font-size="14" font-family="ArialMT, Arial" opacity="0.8"><tspan x="0" y="0">CE26</tspan><tspan x="0" y="20">HDT</tspan><tspan x="0" y="40">1100</tspan><tspan x="0" y="60">Jun 02 2020, 09:15</tspan></text>
    <g id="Group_4016" data-name="Group 4016" transform="translate(233 -576)">
      <g id="Rectangle_166" data-name="Rectangle 166" transform="translate(10 620)" fill="#fff" stroke="#1d7880" stroke-width="1">
        <rect width="94" height="40" rx="2" stroke="none"/>
        <rect x="0.5" y="0.5" width="93" height="39" rx="1.5" fill="none"/>
      </g>
      <g id="Group_3887" data-name="Group 3887" transform="translate(22 632)">
        <text id="View" transform="translate(52.001 14)" fill="#1d7880" font-size="16" font-family="ArialMT, Arial"><tspan x="-17.195" y="0">View</tspan></text>
        <path id="Union_34" data-name="Union 34" d="M14.327,14.869H14.31v0C7.875,14.838,2.954,10.962.7,8.779A1.892,1.892,0,0,1,0,7.311,2.555,2.555,0,0,1,1.052,5.622C3.813,3.376,8.465.114,14.307,0h.035C20.192.111,24.836,3.376,27.6,5.622a2.554,2.554,0,0,1,1.048,1.688,1.888,1.888,0,0,1-.7,1.469c-2.255,2.183-7.162,6.059-13.607,6.087v0ZM8.608,7.434A5.719,5.719,0,1,0,14.327,1.68,5.759,5.759,0,0,0,8.608,7.434Zm5.719,2.234-.018,0v0a2.236,2.236,0,0,1,0-4.472h.035a2.236,2.236,0,0,1,0,4.472v0Z" transform="translate(0 0.999)" fill="#1d7880"/>
      </g>
    </g>
    <g id="Group_3971" data-name="Group 3971" transform="translate(5991 -9974)">
      <g id="Rectangle_2158" data-name="Rectangle 2158" transform="translate(-5748 10068)" fill="#fff" stroke="#1d7880" stroke-width="1">
        <rect width="94" height="40" rx="2" stroke="none"/>
        <rect x="0.5" y="0.5" width="93" height="39" rx="1.5" fill="none"/>
      </g>
      <g id="Group_3886" data-name="Group 3886" transform="translate(-5738 10079.5)">
        <text id="Survey" transform="translate(47 14)" fill="#1d7880" font-size="16" font-family="ArialMT, Arial"><tspan x="-24.898" y="0">Survey</tspan></text>
        <g id="Group_3885" data-name="Group 3885" transform="translate(0 0)">
          <path id="Path_1463" data-name="Path 1463" d="M17.609,17.5a.63.63,0,0,1-.63.63H6.891a.63.63,0,0,1-.63-.63V4.261h6.3V3H5V17.5a1.891,1.891,0,0,0,1.891,1.891H16.978A1.891,1.891,0,0,0,18.869,17.5V9.3H17.609Z" transform="translate(-5 -2.391)" fill="#1d7880" stroke="#1d7880" stroke-width="0.5"/>
          <path id="Path_1464" data-name="Path 1464" d="M23.01,2.567a1.942,1.942,0,0,0-2.673,0l-3.707,3.7L16,9.609l3.31-.662,3.7-3.7a1.891,1.891,0,0,0,0-2.679ZM18.686,7.781,17.576,8l.221-1.11,2.093-2.1.9.9Zm3.436-3.43-.448.441L20.785,3.9l.441-.448h0a.633.633,0,1,1,.9.9Z" transform="translate(-9.065 -2.034)" fill="#1d7880"/>
        </g>
      </g>
    </g>
    <text id="Waiting_to_sync_" data-name="Waiting to sync…" transform="translate(113 44)" fill="#e35100" font-size="12" font-family="Arial-BoldMT, Arial" font-weight="700"><tspan x="0" y="0">Waiting to sync…</tspan></text>
    <g transform="matrix(1, 0, 0, 1, -9, -8)" filter="url(#Rectangle_2166-2)">
      <rect id="Rectangle_2166-6" data-name="Rectangle 2166" width="347" height="144" rx="2" transform="translate(9 162)" fill="#fff"/>
    </g>
    <text id="Structure_ID-2" data-name="Structure ID" transform="translate(10 178)" fill="#3f3f42" font-size="16" font-family="ArialMT, Arial" opacity="0.8"><tspan x="0" y="0">Structure ID</tspan></text>
    <text id="WG011_06-2" data-name="WG011/06" transform="translate(10 199)" fill="#333" font-size="14" font-family="Arial-BoldMT, Arial" font-weight="700"><tspan x="0" y="0">WG011/06</tspan></text>
    <text id="Wire_Run_ID_ELR_Track_ID_Last_Surveyed-2" data-name="Wire Run ID
ELR
Track ID
Last Surveyed" transform="translate(10 225)" fill="#3f3f42" font-size="14" font-family="ArialMT, Arial" opacity="0.8"><tspan x="0" y="0">Wire Run ID</tspan><tspan x="0" y="20">ELR</tspan><tspan x="0" y="40">Track ID</tspan><tspan x="0" y="60">Last Surveyed</tspan></text>
    <text id=":_:_:_:-2" data-name=":
:
:
:" transform="translate(104 225)" fill="#3f3f42" font-size="14" font-family="ArialMT, Arial" opacity="0.8"><tspan x="0" y="0">:</tspan><tspan x="0" y="20">:</tspan><tspan x="0" y="40">:</tspan><tspan x="0" y="60">:</tspan></text>
    <text id="CE26_HDT_1100_Jun_02_2020_09:15-2" data-name="CE26
HDT
1100
Jun 02 2020, 09:15" transform="translate(113 225)" fill="#3f3f42" font-size="14" font-family="ArialMT, Arial" opacity="0.8"><tspan x="0" y="0">CE26</tspan><tspan x="0" y="20">HDT</tspan><tspan x="0" y="40">1100</tspan><tspan x="0" y="60">Jun 02 2020, 09:15</tspan></text>
    <g id="Group_4016-2" data-name="Group 4016" transform="translate(233 -422)">
      <g id="Rectangle_166-2" data-name="Rectangle 166" transform="translate(10 620)" fill="#fff" stroke="#1d7880" stroke-width="1">
        <rect width="94" height="40" rx="2" stroke="none"/>
        <rect x="0.5" y="0.5" width="93" height="39" rx="1.5" fill="none"/>
      </g>
      <g id="Group_3887-2" data-name="Group 3887" transform="translate(22 632)">
        <text id="View-2" data-name="View" transform="translate(52.001 14)" fill="#1d7880" font-size="16" font-family="ArialMT, Arial"><tspan x="-17.195" y="0">View</tspan></text>
        <path id="Union_34-2" data-name="Union 34" d="M14.327,14.869H14.31v0C7.875,14.838,2.954,10.962.7,8.779A1.892,1.892,0,0,1,0,7.311,2.555,2.555,0,0,1,1.052,5.622C3.813,3.376,8.465.114,14.307,0h.035C20.192.111,24.836,3.376,27.6,5.622a2.554,2.554,0,0,1,1.048,1.688,1.888,1.888,0,0,1-.7,1.469c-2.255,2.183-7.162,6.059-13.607,6.087v0ZM8.608,7.434A5.719,5.719,0,1,0,14.327,1.68,5.759,5.759,0,0,0,8.608,7.434Zm5.719,2.234-.018,0v0a2.236,2.236,0,0,1,0-4.472h.035a2.236,2.236,0,0,1,0,4.472v0Z" transform="translate(0 0.999)" fill="#1d7880"/>
      </g>
    </g>
    <g id="Group_3971-2" data-name="Group 3971" transform="translate(5991 -9820)">
      <g id="Rectangle_2158-2" data-name="Rectangle 2158" transform="translate(-5748 10068)" fill="#fff" stroke="#1d7880" stroke-width="1">
        <rect width="94" height="40" rx="2" stroke="none"/>
        <rect x="0.5" y="0.5" width="93" height="39" rx="1.5" fill="none"/>
      </g>
      <g id="Group_3886-2" data-name="Group 3886" transform="translate(-5738 10079.5)">
        <text id="Survey-2" data-name="Survey" transform="translate(47 14)" fill="#1d7880" font-size="16" font-family="ArialMT, Arial"><tspan x="-24.898" y="0">Survey</tspan></text>
        <g id="Group_3885-2" data-name="Group 3885" transform="translate(0 0)">
          <path id="Path_1463-2" data-name="Path 1463" d="M17.609,17.5a.63.63,0,0,1-.63.63H6.891a.63.63,0,0,1-.63-.63V4.261h6.3V3H5V17.5a1.891,1.891,0,0,0,1.891,1.891H16.978A1.891,1.891,0,0,0,18.869,17.5V9.3H17.609Z" transform="translate(-5 -2.391)" fill="#1d7880" stroke="#1d7880" stroke-width="0.5"/>
          <path id="Path_1464-2" data-name="Path 1464" d="M23.01,2.567a1.942,1.942,0,0,0-2.673,0l-3.707,3.7L16,9.609l3.31-.662,3.7-3.7a1.891,1.891,0,0,0,0-2.679ZM18.686,7.781,17.576,8l.221-1.11,2.093-2.1.9.9Zm3.436-3.43-.448.441L20.785,3.9l.441-.448h0a.633.633,0,1,1,.9.9Z" transform="translate(-9.065 -2.034)" fill="#1d7880"/>
        </g>
      </g>
    </g>
    <g transform="matrix(1, 0, 0, 1, -9, -8)" filter="url(#Rectangle_2166-3)">
      <rect id="Rectangle_2166-7" data-name="Rectangle 2166" width="347" height="144" rx="2" transform="translate(9 470)" fill="#fff"/>
    </g>
    <g transform="matrix(1, 0, 0, 1, -9, -8)" filter="url(#Rectangle_2308)">
      <rect id="Rectangle_2308-2" data-name="Rectangle 2308" width="347" height="144" rx="2" transform="translate(9 624)" fill="#fff"/>
    </g>
    <text id="Structure_ID-3" data-name="Structure ID" transform="translate(10 486)" fill="#3f3f42" font-size="16" font-family="ArialMT, Arial" opacity="0.8"><tspan x="0" y="0">Structure ID</tspan></text>
    <text id="Structure_ID-4" data-name="Structure ID" transform="translate(10 640)" fill="#3f3f42" font-size="16" font-family="ArialMT, Arial" opacity="0.8"><tspan x="0" y="0">Structure ID</tspan></text>
    <text id="WG011_06-3" data-name="WG011/06" transform="translate(10 507)" fill="#333" font-size="14" font-family="Arial-BoldMT, Arial" font-weight="700"><tspan x="0" y="0">WG011/06</tspan></text>
    <text id="WG011_06-4" data-name="WG011/06" transform="translate(10 661)" fill="#333" font-size="14" font-family="Arial-BoldMT, Arial" font-weight="700"><tspan x="0" y="0">WG011/06</tspan></text>
    <text id="Wire_Run_ID_ELR_Track_ID_Last_Surveyed-3" data-name="Wire Run ID
ELR
Track ID
Last Surveyed" transform="translate(10 533)" fill="#3f3f42" font-size="14" font-family="ArialMT, Arial" opacity="0.8"><tspan x="0" y="0">Wire Run ID</tspan><tspan x="0" y="20">ELR</tspan><tspan x="0" y="40">Track ID</tspan><tspan x="0" y="60">Last Surveyed</tspan></text>
    <text id="Wire_Run_ID_ELR_Track_ID_Last_Surveyed-4" data-name="Wire Run ID
ELR
Track ID
Last Surveyed" transform="translate(10 687)" fill="#3f3f42" font-size="14" font-family="ArialMT, Arial" opacity="0.8"><tspan x="0" y="0">Wire Run ID</tspan><tspan x="0" y="20">ELR</tspan><tspan x="0" y="40">Track ID</tspan><tspan x="0" y="60">Last Surveyed</tspan></text>
    <text id=":_:_:_:-3" data-name=":
:
:
:" transform="translate(104 533)" fill="#3f3f42" font-size="14" font-family="ArialMT, Arial" opacity="0.8"><tspan x="0" y="0">:</tspan><tspan x="0" y="20">:</tspan><tspan x="0" y="40">:</tspan><tspan x="0" y="60">:</tspan></text>
    <text id=":_:_:_:-4" data-name=":
:
:
:" transform="translate(104 687)" fill="#3f3f42" font-size="14" font-family="ArialMT, Arial" opacity="0.8"><tspan x="0" y="0">:</tspan><tspan x="0" y="20">:</tspan><tspan x="0" y="40">:</tspan><tspan x="0" y="60">:</tspan></text>
    <text id="CE26_HDT_1100_Jun_02_2020_09:15-3" data-name="CE26
HDT
1100
Jun 02 2020, 09:15" transform="translate(113 533)" fill="#3f3f42" font-size="14" font-family="ArialMT, Arial" opacity="0.8"><tspan x="0" y="0">CE26</tspan><tspan x="0" y="20">HDT</tspan><tspan x="0" y="40">1100</tspan><tspan x="0" y="60">Jun 02 2020, 09:15</tspan></text>
    <text id="CE26_HDT_1100_Jun_02_2020_09:15-4" data-name="CE26
HDT
1100
Jun 02 2020, 09:15" transform="translate(113 687)" fill="#3f3f42" font-size="14" font-family="ArialMT, Arial" opacity="0.8"><tspan x="0" y="0">CE26</tspan><tspan x="0" y="20">HDT</tspan><tspan x="0" y="40">1100</tspan><tspan x="0" y="60">Jun 02 2020, 09:15</tspan></text>
    <g id="Group_4016-3" data-name="Group 4016" transform="translate(233 -114)">
      <g id="Rectangle_166-3" data-name="Rectangle 166" transform="translate(10 620)" fill="#fff" stroke="#1d7880" stroke-width="1">
        <rect width="94" height="40" rx="2" stroke="none"/>
        <rect x="0.5" y="0.5" width="93" height="39" rx="1.5" fill="none"/>
      </g>
      <g id="Group_3887-3" data-name="Group 3887" transform="translate(22 632)">
        <text id="View-3" data-name="View" transform="translate(52.001 14)" fill="#1d7880" font-size="16" font-family="ArialMT, Arial"><tspan x="-17.195" y="0">View</tspan></text>
        <path id="Union_34-3" data-name="Union 34" d="M14.327,14.869H14.31v0C7.875,14.838,2.954,10.962.7,8.779A1.892,1.892,0,0,1,0,7.311,2.555,2.555,0,0,1,1.052,5.622C3.813,3.376,8.465.114,14.307,0h.035C20.192.111,24.836,3.376,27.6,5.622a2.554,2.554,0,0,1,1.048,1.688,1.888,1.888,0,0,1-.7,1.469c-2.255,2.183-7.162,6.059-13.607,6.087v0ZM8.608,7.434A5.719,5.719,0,1,0,14.327,1.68,5.759,5.759,0,0,0,8.608,7.434Zm5.719,2.234-.018,0v0a2.236,2.236,0,0,1,0-4.472h.035a2.236,2.236,0,0,1,0,4.472v0Z" transform="translate(0 0.999)" fill="#1d7880"/>
      </g>
    </g>
    <g id="Group_4489" data-name="Group 4489" transform="translate(233 40)">
      <g id="Rectangle_166-4" data-name="Rectangle 166" transform="translate(10 620)" fill="#fff" stroke="#1d7880" stroke-width="1">
        <rect width="94" height="40" rx="2" stroke="none"/>
        <rect x="0.5" y="0.5" width="93" height="39" rx="1.5" fill="none"/>
      </g>
      <g id="Group_3887-4" data-name="Group 3887" transform="translate(22 632)">
        <text id="View-4" data-name="View" transform="translate(52.001 14)" fill="#1d7880" font-size="16" font-family="ArialMT, Arial"><tspan x="-17.195" y="0">View</tspan></text>
        <path id="Union_34-4" data-name="Union 34" d="M14.327,14.869H14.31v0C7.875,14.838,2.954,10.962.7,8.779A1.892,1.892,0,0,1,0,7.311,2.555,2.555,0,0,1,1.052,5.622C3.813,3.376,8.465.114,14.307,0h.035C20.192.111,24.836,3.376,27.6,5.622a2.554,2.554,0,0,1,1.048,1.688,1.888,1.888,0,0,1-.7,1.469c-2.255,2.183-7.162,6.059-13.607,6.087v0ZM8.608,7.434A5.719,5.719,0,1,0,14.327,1.68,5.759,5.759,0,0,0,8.608,7.434Zm5.719,2.234-.018,0v0a2.236,2.236,0,0,1,0-4.472h.035a2.236,2.236,0,0,1,0,4.472v0Z" transform="translate(0 0.999)" fill="#1d7880"/>
      </g>
    </g>
    <g id="Group_3971-3" data-name="Group 3971" transform="translate(5991 -9512)">
      <g id="Rectangle_2158-3" data-name="Rectangle 2158" transform="translate(-5748 10068)" fill="#fff" stroke="#1d7880" stroke-width="1">
        <rect width="94" height="40" rx="2" stroke="none"/>
        <rect x="0.5" y="0.5" width="93" height="39" rx="1.5" fill="none"/>
      </g>
      <g id="Group_3886-3" data-name="Group 3886" transform="translate(-5738 10079.5)">
        <text id="Survey-3" data-name="Survey" transform="translate(47 14)" fill="#1d7880" font-size="16" font-family="ArialMT, Arial"><tspan x="-24.898" y="0">Survey</tspan></text>
        <g id="Group_3885-3" data-name="Group 3885" transform="translate(0 0)">
          <path id="Path_1463-3" data-name="Path 1463" d="M17.609,17.5a.63.63,0,0,1-.63.63H6.891a.63.63,0,0,1-.63-.63V4.261h6.3V3H5V17.5a1.891,1.891,0,0,0,1.891,1.891H16.978A1.891,1.891,0,0,0,18.869,17.5V9.3H17.609Z" transform="translate(-5 -2.391)" fill="#1d7880" stroke="#1d7880" stroke-width="0.5"/>
          <path id="Path_1464-3" data-name="Path 1464" d="M23.01,2.567a1.942,1.942,0,0,0-2.673,0l-3.707,3.7L16,9.609l3.31-.662,3.7-3.7a1.891,1.891,0,0,0,0-2.679ZM18.686,7.781,17.576,8l.221-1.11,2.093-2.1.9.9Zm3.436-3.43-.448.441L20.785,3.9l.441-.448h0a.633.633,0,1,1,.9.9Z" transform="translate(-9.065 -2.034)" fill="#1d7880"/>
        </g>
      </g>
    </g>
    <g id="Group_4488" data-name="Group 4488" transform="translate(5991 -9358)">
      <g id="Rectangle_2158-4" data-name="Rectangle 2158" transform="translate(-5748 10068)" fill="#fff" stroke="#1d7880" stroke-width="1">
        <rect width="94" height="40" rx="2" stroke="none"/>
        <rect x="0.5" y="0.5" width="93" height="39" rx="1.5" fill="none"/>
      </g>
      <g id="Group_3886-4" data-name="Group 3886" transform="translate(-5738 10079.5)">
        <text id="Survey-4" data-name="Survey" transform="translate(47 14)" fill="#1d7880" font-size="16" font-family="ArialMT, Arial"><tspan x="-24.898" y="0">Survey</tspan></text>
        <g id="Group_3885-4" data-name="Group 3885" transform="translate(0 0)">
          <path id="Path_1463-4" data-name="Path 1463" d="M17.609,17.5a.63.63,0,0,1-.63.63H6.891a.63.63,0,0,1-.63-.63V4.261h6.3V3H5V17.5a1.891,1.891,0,0,0,1.891,1.891H16.978A1.891,1.891,0,0,0,18.869,17.5V9.3H17.609Z" transform="translate(-5 -2.391)" fill="#1d7880" stroke="#1d7880" stroke-width="0.5"/>
          <path id="Path_1464-4" data-name="Path 1464" d="M23.01,2.567a1.942,1.942,0,0,0-2.673,0l-3.707,3.7L16,9.609l3.31-.662,3.7-3.7a1.891,1.891,0,0,0,0-2.679ZM18.686,7.781,17.576,8l.221-1.11,2.093-2.1.9.9Zm3.436-3.43-.448.441L20.785,3.9l.441-.448h0a.633.633,0,1,1,.9.9Z" transform="translate(-9.065 -2.034)" fill="#1d7880"/>
        </g>
      </g>
    </g>
    <text id="Pending_Review" data-name="Pending Review" transform="translate(113 506)" fill="#e35100" font-size="12" font-family="Arial-BoldMT, Arial" font-weight="700"><tspan x="0" y="0">Pending Review</tspan></text>
    <text id="Pending_Review-2" data-name="Pending Review" transform="translate(113 660)" fill="#e35100" font-size="12" font-family="Arial-BoldMT, Arial" font-weight="700"><tspan x="0" y="0">Pending Review</tspan></text>
    <g transform="matrix(1, 0, 0, 1, -9, -8)" filter="url(#Rectangle_2166-4)">
      <rect id="Rectangle_2166-8" data-name="Rectangle 2166" width="347" height="144" rx="2" transform="translate(9 316)" fill="#fff"/>
    </g>
    <text id="Structure_ID-5" data-name="Structure ID" transform="translate(10 332)" fill="#3f3f42" font-size="16" font-family="ArialMT, Arial" opacity="0.8"><tspan x="0" y="0">Structure ID</tspan></text>
    <text id="WG011_06-5" data-name="WG011/06" transform="translate(10 353)" fill="#333" font-size="14" font-family="Arial-BoldMT, Arial" font-weight="700"><tspan x="0" y="0">WG011/06</tspan></text>
    <text id="Wire_Run_ID_ELR_Track_ID_Last_Surveyed-5" data-name="Wire Run ID
ELR
Track ID
Last Surveyed" transform="translate(10 379)" fill="#3f3f42" font-size="14" font-family="ArialMT, Arial" opacity="0.8"><tspan x="0" y="0">Wire Run ID</tspan><tspan x="0" y="20">ELR</tspan><tspan x="0" y="40">Track ID</tspan><tspan x="0" y="60">Last Surveyed</tspan></text>
    <text id=":_:_:_:-5" data-name=":
:
:
:" transform="translate(104 379)" fill="#3f3f42" font-size="14" font-family="ArialMT, Arial" opacity="0.8"><tspan x="0" y="0">:</tspan><tspan x="0" y="20">:</tspan><tspan x="0" y="40">:</tspan><tspan x="0" y="60">:</tspan></text>
    <text id="CE26_HDT_1100_Jun_02_2020_09:15-5" data-name="CE26
HDT
1100
Jun 02 2020, 09:15" transform="translate(113 379)" fill="#3f3f42" font-size="14" font-family="ArialMT, Arial" opacity="0.8"><tspan x="0" y="0">CE26</tspan><tspan x="0" y="20">HDT</tspan><tspan x="0" y="40">1100</tspan><tspan x="0" y="60">Jun 02 2020, 09:15</tspan></text>
    <g id="Group_4016-4" data-name="Group 4016" transform="translate(233 -268)">
      <g id="Rectangle_166-5" data-name="Rectangle 166" transform="translate(10 620)" fill="#fff" stroke="#1d7880" stroke-width="1">
        <rect width="94" height="40" rx="2" stroke="none"/>
        <rect x="0.5" y="0.5" width="93" height="39" rx="1.5" fill="none"/>
      </g>
      <g id="Group_3887-5" data-name="Group 3887" transform="translate(22 632)">
        <text id="View-5" data-name="View" transform="translate(52.001 14)" fill="#1d7880" font-size="16" font-family="ArialMT, Arial"><tspan x="-17.195" y="0">View</tspan></text>
        <path id="Union_34-5" data-name="Union 34" d="M14.327,14.869H14.31v0C7.875,14.838,2.954,10.962.7,8.779A1.892,1.892,0,0,1,0,7.311,2.555,2.555,0,0,1,1.052,5.622C3.813,3.376,8.465.114,14.307,0h.035C20.192.111,24.836,3.376,27.6,5.622a2.554,2.554,0,0,1,1.048,1.688,1.888,1.888,0,0,1-.7,1.469c-2.255,2.183-7.162,6.059-13.607,6.087v0ZM8.608,7.434A5.719,5.719,0,1,0,14.327,1.68,5.759,5.759,0,0,0,8.608,7.434Zm5.719,2.234-.018,0v0a2.236,2.236,0,0,1,0-4.472h.035a2.236,2.236,0,0,1,0,4.472v0Z" transform="translate(0 0.999)" fill="#1d7880"/>
      </g>
    </g>
    <g id="Group_3971-4" data-name="Group 3971" transform="translate(5991 -9666)">
      <g id="Rectangle_2158-5" data-name="Rectangle 2158" transform="translate(-5748 10068)" fill="#fff" stroke="#1d7880" stroke-width="1">
        <rect width="94" height="40" rx="2" stroke="none"/>
        <rect x="0.5" y="0.5" width="93" height="39" rx="1.5" fill="none"/>
      </g>
      <g id="Group_3886-5" data-name="Group 3886" transform="translate(-5738 10079.5)">
        <text id="Survey-5" data-name="Survey" transform="translate(47 14)" fill="#1d7880" font-size="16" font-family="ArialMT, Arial"><tspan x="-24.898" y="0">Survey</tspan></text>
        <g id="Group_3885-5" data-name="Group 3885" transform="translate(0 0)">
          <path id="Path_1463-5" data-name="Path 1463" d="M17.609,17.5a.63.63,0,0,1-.63.63H6.891a.63.63,0,0,1-.63-.63V4.261h6.3V3H5V17.5a1.891,1.891,0,0,0,1.891,1.891H16.978A1.891,1.891,0,0,0,18.869,17.5V9.3H17.609Z" transform="translate(-5 -2.391)" fill="#1d7880" stroke="#1d7880" stroke-width="0.5"/>
          <path id="Path_1464-5" data-name="Path 1464" d="M23.01,2.567a1.942,1.942,0,0,0-2.673,0l-3.707,3.7L16,9.609l3.31-.662,3.7-3.7a1.891,1.891,0,0,0,0-2.679ZM18.686,7.781,17.576,8l.221-1.11,2.093-2.1.9.9Zm3.436-3.43-.448.441L20.785,3.9l.441-.448h0a.633.633,0,1,1,.9.9Z" transform="translate(-9.065 -2.034)" fill="#1d7880"/>
        </g>
      </g>
    </g>
    <g id="Component_364_1" data-name="Component 364 – 1" transform="translate(247 10)">
      <rect id="Rectangle_2293" data-name="Rectangle 2293" width="90" height="19" rx="9.5" fill="#e35100"/>
      <g id="Component_358_2" data-name="Component 358 – 2" transform="translate(10 4)">
        <text id="Outside_Limits" data-name="Outside Limits" transform="translate(35 9)" fill="#fff" font-size="10" font-family="Arial-BoldMT, Arial" font-weight="700"><tspan x="-34.727" y="0">Outside Limits</tspan></text>
      </g>
    </g>
    <g id="Component_363_1" data-name="Component 363 – 1" transform="translate(247 164)">
      <rect id="Rectangle_2293-2" data-name="Rectangle 2293" width="90" height="19" rx="9.5" fill="#e4b720"/>
      <g id="Component_358_3" data-name="Component 358 – 3" transform="translate(10 4)">
        <text id="Nearing_Limits" data-name="Nearing Limits" transform="translate(35 9)" font-size="10" font-family="Arial-BoldMT, Arial" font-weight="700"><tspan x="-34.729" y="0">Nearing Limits</tspan></text>
      </g>
    </g>
    <g id="Component_362_1" data-name="Component 362 – 1" transform="translate(255 318)">
      <rect id="Rectangle_2293-3" data-name="Rectangle 2293" width="82" height="19" rx="9.5" fill="#8dca61"/>
      <g id="Component_358_4" data-name="Component 358 – 4" transform="translate(10 4)">
        <text id="Within_Limits" data-name="Within Limits" transform="translate(31 9)" fill="#fff" font-size="10" font-family="Arial-BoldMT, Arial" font-weight="700"><tspan x="-31.34" y="0">Within Limits</tspan></text>
      </g>
    </g>
    <g id="Component_362_3" data-name="Component 362 – 3" transform="translate(255 626)">
      <rect id="Rectangle_2293-4" data-name="Rectangle 2293" width="82" height="19" rx="9.5" fill="#8dca61"/>
      <g id="Component_358_4-2" data-name="Component 358 – 4" transform="translate(10 4)">
        <text id="Within_Limits-2" data-name="Within Limits" transform="translate(31 9)" fill="#fff" font-size="10" font-family="Arial-BoldMT, Arial" font-weight="700"><tspan x="-31.34" y="0">Within Limits</tspan></text>
      </g>
    </g>
    <g id="Component_361_1" data-name="Component 361 – 1" transform="translate(273 472)">
      <rect id="Rectangle_2293-5" data-name="Rectangle 2293" width="64" height="19" rx="9.5" fill="#888"/>
      <g id="Component_358_5" data-name="Component 358 – 5" transform="translate(10 4)">
        <text id="Unknown" transform="translate(22 9)" fill="#fff" font-size="10" font-family="Arial-BoldMT, Arial" font-weight="700"><tspan x="-22.498" y="0">Unknown</tspan></text>
      </g>
    </g>
  </g>
</svg>
