<svg id="Component_427" data-name="Component 427" xmlns="http://www.w3.org/2000/svg" xmlns:xlink="http://www.w3.org/1999/xlink" width="16" height="16" viewBox="0 0 16 16">
  <defs>
    <clipPath id="clip-path">
      <rect id="Rectangle_2741" data-name="Rectangle 2741" width="16" height="16" transform="translate(-6374 8003)" fill="#4d4f5c"/>
    </clipPath>
  </defs>
  <g id="Mask_Group_23" data-name="Mask Group 23" transform="translate(6374 -8003)" clip-path="url(#clip-path)">
    <path id="info-circle" d="M8.258.258a8,8,0,1,0,8,8A8,8,0,0,0,8.258.258Zm0,3.548A1.355,1.355,0,1,1,6.9,5.161,1.355,1.355,0,0,1,8.258,3.806ZM10.065,12a.387.387,0,0,1-.387.387H6.839A.387.387,0,0,1,6.452,12v-.774a.387.387,0,0,1,.387-.387h.387V8.774H6.839a.387.387,0,0,1-.387-.387V7.613a.387.387,0,0,1,.387-.387H8.9a.387.387,0,0,1,.387.387v3.226h.387a.387.387,0,0,1,.387.387Z" transform="translate(-6374.258 8002.742)" fill="#4d4f5c"/>
  </g>
</svg>
