<svg id="Stepper_2" data-name="Stepper 2" xmlns="http://www.w3.org/2000/svg" width="942" height="61" viewBox="0 0 942 61">
  <g id="step">
    <text id="Step_1" data-name="Step 1" transform="translate(19 58)" fill="#4d4f5c" font-size="13" font-family="ArialMT, Arial"><tspan x="-18.792" y="0">Step 1</tspan></text>
    <path id="Ellipse" d="M19,0A19,19,0,1,1,0,19,19,19,0,0,1,19,0Z" fill="#4f99bb"/>
    <text id="_1" data-name="1" transform="translate(19 24)" fill="#fff" font-size="13" font-family="Arial-BoldMT, Arial" font-weight="700"><tspan x="-3.615" y="0">1</tspan></text>
    <path id="Line" d="M0,0H2V238H0Z" transform="translate(286 19) rotate(90)" fill="#4f99bb"/>
  </g>
  <g id="step-2" data-name="step" transform="translate(302.455)">
    <text id="Step_2" data-name="Step 2" transform="translate(18.545 58)" fill="#4d4f5c" font-size="13" font-family="ArialMT, Arial"><tspan x="-18.792" y="0">Step 2</tspan></text>
    <path id="Ellipse-2" data-name="Ellipse" d="M19,0A19,19,0,1,1,0,19,19,19,0,0,1,19,0Z" fill="#4f99bb"/>
    <text id="_2" data-name="2" transform="translate(18.545 24)" fill="#fff" font-size="13" font-family="Arial-BoldMT, Arial" font-weight="700"><tspan x="-3.615" y="0">2</tspan></text>
    <path id="Line-2" data-name="Line" d="M0,0H2V238H0Z" transform="translate(286 19) rotate(90)" fill="rgba(147,147,147,0.4)"/>
  </g>
  <g id="step-3" data-name="step" transform="translate(607)">
    <text id="Step_3" data-name="Step 3" transform="translate(19 58)" fill="#4d4f5c" font-size="13" font-family="ArialMT, Arial"><tspan x="-18.792" y="0">Step 3</tspan></text>
    <g id="Ellipse-3" data-name="Ellipse" fill="none">
      <path d="M19,0A19,19,0,1,1,0,19,19,19,0,0,1,19,0Z" stroke="none"/>
      <path d="M 19 2 C 14.45914077758789 2 10.19005966186523 3.768310546875 6.979179382324219 6.979179382324219 C 3.768310546875 10.19005966186523 2 14.45914077758789 2 19 C 2 23.54085922241211 3.768310546875 27.80994033813477 6.979179382324219 31.02082061767578 C 10.19005966186523 34.231689453125 14.45914077758789 36 19 36 C 23.54085922241211 36 27.80994033813477 34.231689453125 31.02082061767578 31.02082061767578 C 34.231689453125 27.80994033813477 36 23.54085922241211 36 19 C 36 14.45914077758789 34.231689453125 10.19005966186523 31.02082061767578 6.979179382324219 C 27.80994033813477 3.768310546875 23.54085922241211 2 19 2 M 19 0 C 29.49341011047363 0 38 8.506589889526367 38 19 C 38 29.49341011047363 29.49341011047363 38 19 38 C 8.506589889526367 38 0 29.49341011047363 0 19 C 0 8.506589889526367 8.506589889526367 0 19 0 Z" stroke="none" fill="#8dc255"/>
    </g>
    <text id="_3" data-name="3" transform="translate(19 24)" fill="#8dc055" font-size="13" font-family="Arial-BoldMT, Arial" font-weight="700"><tspan x="-3.615" y="0">3</tspan></text>
    <path id="Line-3" data-name="Line" d="M0,0H2V238H0Z" transform="translate(286 19) rotate(90)" fill="rgba(147,147,147,0.4)"/>
  </g>
  <g id="step-4" data-name="step" transform="translate(904)">
    <text id="Step_4" data-name="Step 4" transform="translate(19 58)" fill="#4d4f5c" font-size="13" font-family="ArialMT, Arial"><tspan x="-18.792" y="0">Step 4</tspan></text>
    <g id="Ellipse-4" data-name="Ellipse" fill="none">
      <path d="M19,0A19,19,0,1,1,0,19,19,19,0,0,1,19,0Z" stroke="none"/>
      <path d="M 19 2 C 14.45914077758789 2 10.19005966186523 3.768310546875 6.979179382324219 6.979179382324219 C 3.768310546875 10.19005966186523 2 14.45914077758789 2 19 C 2 23.54085922241211 3.768310546875 27.80994033813477 6.979179382324219 31.02082061767578 C 10.19005966186523 34.231689453125 14.45914077758789 36 19 36 C 23.54085922241211 36 27.80994033813477 34.231689453125 31.02082061767578 31.02082061767578 C 34.231689453125 27.80994033813477 36 23.54085922241211 36 19 C 36 14.45914077758789 34.231689453125 10.19005966186523 31.02082061767578 6.979179382324219 C 27.80994033813477 3.768310546875 23.54085922241211 2 19 2 M 19 0 C 29.49341011047363 0 38 8.506589889526367 38 19 C 38 29.49341011047363 29.49341011047363 38 19 38 C 8.506589889526367 38 0 29.49341011047363 0 19 C 0 8.506589889526367 8.506589889526367 0 19 0 Z" stroke="none" fill="#8dc455"/>
    </g>
    <text id="_4" data-name="4" transform="translate(19 24)" fill="#8dc655" font-size="13" font-family="Arial-BoldMT, Arial" font-weight="700"><tspan x="-3.615" y="0">4</tspan></text>
  </g>
</svg>
