<svg id="Component_132" data-name="Component 132" xmlns="http://www.w3.org/2000/svg" width="268" height="220" viewBox="0 0 268 220">
  <g id="Background" transform="translate(0 19)">
    <rect id="Platter" width="268" height="220" rx="14" transform="translate(0 -19)" fill="rgba(242,242,242,0.8)"/>
  </g>
  <text id="Description" transform="translate(79 54)" font-size="13" font-family="ArialMT, Arial" letter-spacing="-0.008em"><tspan x="0" y="12">= Within Specifications</tspan><tspan x="0" y="40">= Outside Specifications</tspan><tspan x="0" y="68">= Fault</tspan><tspan x="0" y="96">= Unknown</tspan></text>
  <text id="Title" transform="translate(16 19)" font-size="17" font-family="Arial-BoldMT, Arial" font-weight="700" letter-spacing="-0.032em"><tspan x="39.33" y="15">BWA Survey Results</tspan></text>
  <g id="Bottom_Actions" data-name="Bottom Actions" transform="translate(0 167)">
    <rect id="Frame" width="268" height="44" transform="translate(0 9)" fill="#fff" opacity="0"/>
    <g id="Separator">
      <rect id="Frame-2" data-name="Frame" width="268" height="1" fill="#fff" opacity="0"/>
      <rect id="Separator-2" data-name="Separator" width="268" height="0.5" transform="translate(0 10)" fill="rgba(60,60,67,0.29)"/>
    </g>
    <text id="Label" transform="translate(134 38)" fill="#1d7880" font-size="17" font-family="Arial-BoldMT, Arial" font-weight="700" letter-spacing="-0.024em"><tspan x="-22.331" y="0">Close</tspan></text>
  </g>
  <ellipse id="Ellipse_325" data-name="Ellipse 325" cx="9" cy="9.5" rx="9" ry="9.5" transform="translate(49 107)" fill="#e04348"/>
  <ellipse id="Ellipse_392" data-name="Ellipse 392" cx="9" cy="9.5" rx="9" ry="9.5" transform="translate(49 137)" fill="#888"/>
  <circle id="Ellipse_327" data-name="Ellipse 327" cx="9" cy="9" r="9" transform="translate(49 81)" fill="#fbcd42"/>
  <ellipse id="Ellipse_306" data-name="Ellipse 306" cx="9" cy="9.5" rx="9" ry="9.5" transform="translate(49 52)" fill="#8dca61"/>
</svg>
