<svg id="Component_365" data-name="Component 365" xmlns="http://www.w3.org/2000/svg" width="29.238" height="32" viewBox="0 0 29.238 32">
  <path id="Search_Icon" data-name="Search Icon" d="M13.484,11.923a7.2,7.2,0,0,0,1.486-4.432A7.453,7.453,0,0,0,7.539,0,7.544,7.544,0,0,0,0,7.492a7.544,7.544,0,0,0,7.539,7.492A7.079,7.079,0,0,0,12,13.506l4.4,4.379a1.031,1.031,0,0,0,1.486,0,1.016,1.016,0,0,0,0-1.477Zm-5.946.844A5.332,5.332,0,0,1,2.124,7.492a5.415,5.415,0,0,1,10.83,0A5.332,5.332,0,0,1,7.539,12.768Z" transform="translate(10.786 6.5)" fill="#1d7880" stroke="#1d7880" stroke-width="0.5"/>
  <g id="Rectangle_1554" data-name="Rectangle 1554" fill="#fff" stroke="#707070" stroke-width="1" opacity="0.209">
    <rect width="1" height="32" stroke="none"/>
    <rect x="0.5" y="0.5" height="31" fill="none"/>
  </g>
</svg>
