<svg id="Component_205" data-name="Component 205" xmlns="http://www.w3.org/2000/svg" width="40" height="40" viewBox="0 0 40 40">
  <g id="Rectangle_2432" data-name="Rectangle 2432" fill="#fff" stroke="#1d7880" stroke-width="1">
    <rect width="40" height="40" rx="2" stroke="none"/>
    <rect x="0.5" y="0.5" width="39" height="39" rx="1.5" fill="none"/>
  </g>
  <g id="Group_4691" data-name="Group 4691" transform="translate(-3858 -7493.895)">
    <path id="Path_1856" data-name="Path 1856" d="M15.885,3.7h-.54v.471a1.313,1.313,0,0,0-2.625,0H11.374a1.313,1.313,0,0,0-2.625,0H7.4A1.265,1.265,0,0,0,6.09,2.895,1.265,1.265,0,0,0,4.778,4.167V3.695H4.088A2.1,2.1,0,0,0,2,5.79L1.974,16.8a2.1,2.1,0,0,0,2.089,2.095h11.8A2.094,2.094,0,0,0,17.948,16.8l.025-11.01A2.1,2.1,0,0,0,15.885,3.7Zm-2.427.471c0-.34.258-.726.575-.726s.575.386.575.726V5.518a.576.576,0,1,1-1.15,0Zm-3.972,0c0-.34.258-.726.575-.726s.575.386.575.726V5.518a.576.576,0,1,1-1.15,0Zm-3.972,0c0-.34.258-.726.575-.726s.575.386.575.726V5.518a.576.576,0,1,1-1.15,0ZM16.72,16.8a.862.862,0,0,1-.86.863H4.063A.862.862,0,0,1,3.2,16.8L3.228,6.776H16.745Z" transform="translate(3868.026 7503)" fill="#1d7880"/>
    <rect id="Rectangle_2010" data-name="Rectangle 2010" width="2.262" height="2.007" transform="translate(3872.338 7511.12)" fill="#1d7880"/>
    <rect id="Rectangle_2011" data-name="Rectangle 2011" width="2.263" height="2.007" transform="translate(3875.358 7511.12)" fill="#1d7880"/>
    <rect id="Rectangle_2012" data-name="Rectangle 2012" width="2.262" height="2.007" transform="translate(3878.38 7511.12)" fill="#1d7880"/>
    <rect id="Rectangle_2013" data-name="Rectangle 2013" width="2.263" height="2.007" transform="translate(3881.398 7511.12)" fill="#1d7880"/>
    <rect id="Rectangle_2014" data-name="Rectangle 2014" width="2.262" height="2.005" transform="translate(3872.338 7513.798)" fill="#1d7880"/>
    <rect id="Rectangle_2015" data-name="Rectangle 2015" width="2.263" height="2.005" transform="translate(3875.358 7513.798)" fill="#1d7880"/>
    <rect id="Rectangle_2016" data-name="Rectangle 2016" width="2.262" height="2.005" transform="translate(3878.38 7513.798)" fill="#1d7880"/>
    <rect id="Rectangle_2017" data-name="Rectangle 2017" width="2.263" height="2.005" transform="translate(3881.398 7513.798)" fill="#1d7880"/>
    <rect id="Rectangle_2018" data-name="Rectangle 2018" width="2.262" height="2.005" transform="translate(3872.338 7516.476)" fill="#1d7880"/>
    <rect id="Rectangle_2019" data-name="Rectangle 2019" width="2.263" height="2.005" transform="translate(3875.358 7516.476)" fill="#1d7880"/>
    <rect id="Rectangle_2020" data-name="Rectangle 2020" width="2.262" height="2.005" transform="translate(3878.38 7516.476)" fill="#1d7880"/>
    <rect id="Rectangle_2021" data-name="Rectangle 2021" width="2.263" height="2.005" transform="translate(3881.398 7516.476)" fill="#1d7880"/>
  </g>
</svg>
