<svg id="Component_13" data-name="Component 13" xmlns="http://www.w3.org/2000/svg" width="53.246" height="20" viewBox="0 0 53.246 20">
  <path id="Path_1178" data-name="Path 1178" d="M20.3,289.008H72.165l-28.727,5.478Zm28.611,6.78,9.424,2.236,13.83-9.008ZM62.2,298.926l7.2,1.709L72.156,289Z" transform="translate(-20.3 -280.635)" fill="#e76424"/>
  <path id="Path_1179" data-name="Path 1179" d="M28.6,209.3h1.677l1.1,3.8h.016l.791-3.8h1.31l-1.182,5.486H30.634l-1.126-3.793h-.016l-.783,3.793H27.4Z" transform="translate(-26.832 -209.3)" fill="#fff"/>
  <path id="Path_1180" data-name="Path 1180" d="M104.146,232.141a5.188,5.188,0,0,1-1.358.216,1.775,1.775,0,0,1-1.988-1.773,2.245,2.245,0,0,1,2.332-2.284,1.587,1.587,0,0,1,1.781,1.685,4.132,4.132,0,0,1-.1.735H102.07c.016.415.216.743,1.038.743a3.13,3.13,0,0,0,1.214-.271Zm-.343-2.172c0-.415-.16-.767-.655-.767a.991.991,0,0,0-.99.767Z" transform="translate(-94.372 -226.783)" fill="#fff"/>
  <path id="Path_1181" data-name="Path 1181" d="M156.66,215.606h.607l.28-1.206h1.334l-.28,1.206h1.078l-.168.942h-1.134l-.24,1.078a3.4,3.4,0,0,0-.112.671c0,.264.319.407.591.407a1.7,1.7,0,0,0,.431-.1l-.152.91a5.032,5.032,0,0,1-.831.08c-.687,0-1.374-.327-1.374-1.15a3.741,3.741,0,0,1,.12-.791l.24-1.086H156.5Z" transform="translate(-144.381 -213.992)" fill="#fff"/>
  <path id="Path_1182" data-name="Path 1182" d="M205.563,233.373h-1.557l-.04-2.8h-.016l-1.342,2.8h-1.565L200.7,229.5h1.334l.024,2.8h.016l1.286-2.8h1.621l.016,2.8h.016l1.254-2.8h1.358Z" transform="translate(-184.472 -227.887)" fill="#fff"/>
  <path id="Path_1183" data-name="Path 1183" d="M286.2,232.357c-1.429,0-2-.791-2-1.773a2.27,2.27,0,0,1,2.507-2.284c1.318,0,2,.759,2,1.733A2.2,2.2,0,0,1,286.2,232.357Zm.431-3.114c-.647,0-1.054.7-1.054,1.318,0,.527.272.87.727.862.623,0,1.022-.527,1.022-1.4C287.33,229.618,287.155,229.242,286.636,229.242Z" transform="translate(-260.578 -226.783)" fill="#fff"/>
  <path id="Path_1184" data-name="Path 1184" d="M344.429,228.4l-.152.791h.016a1.425,1.425,0,0,1,1.2-.886,1.387,1.387,0,0,1,.559.1l-.312,1.182a.947.947,0,0,0-.615-.16c-.559,0-.9.5-1,1.062l-.383,1.789H342.4l.615-2.859a10.164,10.164,0,0,0,.168-1.006l1.246-.016Z" transform="translate(-313.613 -226.783)" fill="#fff"/>
  <path id="Path_1185" data-name="Path 1185" d="M385.906,209.3h1.358l-.711,3.242h.016l1.286-1.621h1.525l-1.605,1.861,1,2h-1.493l-.783-1.917h-.016l-.415,1.917H384.7Z" transform="translate(-352.04 -209.3)" fill="#fff"/>
  <path id="Path_1186" data-name="Path 1186" d="M444.482,209.3h1.669c1.046.008,2.3.04,2.292,1.4a1.569,1.569,0,0,1-1.517,1.565v.016c.431.04.567.623.647.974l.383,1.533h-1.374l-.28-1.4c-.136-.719-.359-.767-1.014-.767h-.152l-.455,2.172H443.3Zm.87,2.276h.575c.639,0,1.134-.152,1.142-.679,0-.391-.232-.559-.679-.567h-.775Z" transform="translate(-405.331 -209.3)" fill="#fff"/>
  <path id="Path_1187" data-name="Path 1187" d="M509.51,231.91l-.016-.016v.016a1.485,1.485,0,0,1-1.31.631c-.83,0-1.294-.367-1.286-1.126.008-.95.958-1.413,2.14-1.413.272,0,.535.024.727.04a.517.517,0,0,0,.016-.152c0-.279-.272-.5-.711-.5a2.418,2.418,0,0,0-1.254.311l.136-.974a4.307,4.307,0,0,1,1.421-.224c.926,0,1.677.359,1.669,1.318,0,.607-.344,1.477-.5,2.643h-1.094Zm-.894-.264a1.015,1.015,0,0,0,1.014-.918,1.941,1.941,0,0,0-.351-.024c-.639-.024-1.11.208-1.11.543A.428.428,0,0,0,508.616,231.646Z" transform="translate(-462.716 -226.967)" fill="#fff"/>
  <path id="Path_1188" data-name="Path 1188" d="M562.231,210.913h1.358l-.831,3.873H561.4Zm.343-1.613h1.358l-.216.982h-1.358Z" transform="translate(-512.865 -209.3)" fill="#fff"/>
  <path id="Path_1189" data-name="Path 1189" d="M589.874,209.3h1.358l-1.174,5.486H588.7Z" transform="translate(-537.985 -209.3)" fill="#fff"/>
</svg>
