<svg id="Component_146" data-name="Component 146" xmlns="http://www.w3.org/2000/svg" width="22" height="22" viewBox="0 0 22 22">
  <g id="Path_1404" data-name="Path 1404" fill="none">
    <path d="M11,0A11,11,0,1,1,0,11,11,11,0,0,1,11,0Z" stroke="none"/>
    <path d="M 11 2.5 C 6.313079833984375 2.5 2.5 6.313079833984375 2.5 11 C 2.5 15.68692016601562 6.313079833984375 19.5 11 19.5 C 15.68692016601562 19.5 19.5 15.68692016601562 19.5 11 C 19.5 6.313079833984375 15.68692016601562 2.5 11 2.5 M 11 0 C 17.07513046264648 0 22 4.924869537353516 22 11 C 22 17.07513046264648 17.07513046264648 22 11 22 C 4.924869537353516 22 0 17.07513046264648 0 11 C 0 4.924869537353516 4.924869537353516 0 11 0 Z" stroke="none" fill="#1d7880"/>
  </g>
  <g id="Path_1406" data-name="Path 1406" transform="translate(5.006 5.006)" fill="#1d7880">
    <path d="M 5.994140625 10.73828029632568 C 3.378210544586182 10.73828029632568 1.250000596046448 8.61007022857666 1.250000596046448 5.994140625 C 1.250000596046448 3.378210544586182 3.378210544586182 1.250000596046448 5.994140625 1.250000596046448 C 8.61007022857666 1.250000596046448 10.73828029632568 3.378210544586182 10.73828029632568 5.994140625 C 10.73828029632568 8.61007022857666 8.61007022857666 10.73828029632568 5.994140625 10.73828029632568 Z" stroke="none"/>
    <path d="M 5.994140625 2.500000953674316 C 4.067460536956787 2.500000953674316 2.500000953674316 4.067460536956787 2.500000953674316 5.994140625 C 2.500000953674316 7.920820713043213 4.067460536956787 9.488280296325684 5.994140625 9.488280296325684 C 7.920820713043213 9.488280296325684 9.488280296325684 7.920820713043213 9.488280296325684 5.994140625 C 9.488280296325684 4.067460536956787 7.920820713043213 2.500000953674316 5.994140625 2.500000953674316 M 5.994140625 9.5367431640625e-07 C 9.304611206054688 9.5367431640625e-07 11.98828029632568 2.683670997619629 11.98828029632568 5.994140625 C 11.98828029632568 9.304611206054688 9.304611206054688 11.98828029632568 5.994140625 11.98828029632568 C 2.683670997619629 11.98828029632568 9.5367431640625e-07 9.304611206054688 9.5367431640625e-07 5.994140625 C 9.5367431640625e-07 2.683670997619629 2.683670997619629 9.5367431640625e-07 5.994140625 9.5367431640625e-07 Z" stroke="none" fill="#1d7880"/>
  </g>
</svg>
