<svg id="Component_182" data-name="Component 182" xmlns="http://www.w3.org/2000/svg" width="36" height="36" viewBox="0 0 36 36">
  <rect id="Rectangle_2123" data-name="Rectangle 2123" width="34" height="34" rx="3" transform="translate(1 1)" fill="#005172"/>
  <path id="Path_1775" data-name="Path 1775" d="M37.455,5.5H9.545A4.05,4.05,0,0,0,5.5,9.545v27.91A4.05,4.05,0,0,0,9.545,41.5h27.91A4.05,4.05,0,0,0,41.5,37.455V9.545A4.05,4.05,0,0,0,37.455,5.5Zm2.427,31.955a2.429,2.429,0,0,1-2.427,2.427H9.545a2.429,2.429,0,0,1-2.427-2.427V9.545A2.429,2.429,0,0,1,9.545,7.118h27.91a2.429,2.429,0,0,1,2.427,2.427Z" transform="translate(-5.5 -5.5)" fill="#fff"/>
  <path id="Path_1934" data-name="Path 1934" d="M17.971,15.409l-2.562,2.562-4.43-4.43-4.43,4.43L3.986,15.409l4.43-4.43-4.43-4.43L6.548,3.986l4.43,4.43,4.43-4.43,2.562,2.562-4.43,4.43Z" transform="translate(6.964 6.786)" fill="#fff"/>
</svg>
