<svg xmlns="http://www.w3.org/2000/svg" width="234.975" height="235.353" viewBox="0 0 234.975 235.353">
  <g id="Component_454" data-name="Component 454" transform="translate(0 0)">
    <g id="Intersection_9" data-name="Intersection 9" transform="translate(30.629)" fill="#e4b720">
      <path d="M 86.95417022705078 116.1181411743164 L 1.416670203208923 38.27692031860352 C 6.565399646759033 32.72851181030273 12.26997661590576 27.66592025756836 18.38532066345215 23.2189769744873 C 24.82327270507812 18.53747749328613 31.75660514831543 14.50947761535645 38.99274826049805 11.24685859680176 C 46.36229705810547 7.924072742462158 54.1038932800293 5.369763374328613 62.00243759155273 3.654834747314453 C 70.11603546142578 1.893215775489807 78.47920227050781 1.000001430511475 86.85962677001953 1.000001430511475 C 96.75572204589844 1.000001430511475 106.5856094360352 2.241834878921509 116.0762023925781 4.691025257110596 C 125.2873229980469 7.06807279586792 134.2004699707031 10.58607292175293 142.5680847167969 15.14728736877441 C 150.7919921875 19.63016891479492 158.4784393310547 25.11369132995605 165.4139099121094 31.44550132751465 C 172.0828857421875 37.53401184082031 178.0375366210938 44.38828659057617 183.1250915527344 51.83112716674805 L 86.95417022705078 116.1181411743164 Z" stroke="none"/>
      <path d="M 86.85963439941406 2 C 78.55040740966797 2 70.25862884521484 2.885543823242188 62.21463012695312 4.632049560546875 C 54.38433837890625 6.332168579101562 46.70965576171875 8.864418029785156 39.40377807617188 12.15847015380859 C 32.22990417480469 15.39302062988281 25.35615539550781 19.38644409179688 18.97344970703125 24.02777099609375 C 13.182373046875 28.2388916015625 7.762527465820312 33.00722503662109 2.839813232421875 38.21992492675781 L 87.04872131347656 114.8520889282227 L 181.7256317138672 51.56373596191406 C 176.8096466064453 44.50553131103516 171.1022491455078 37.99280548095703 164.7396545410156 32.18402099609375 C 157.8635101318359 25.90634918212891 150.2428588867188 20.46977233886719 142.0894470214844 16.02529907226562 C 133.7940368652344 11.50344848632812 124.9578323364258 8.015800476074219 115.8263320922852 5.659294128417969 C 106.4172821044922 3.231170654296875 96.67147827148438 2 86.85963439941406 2 M 86.85963439941406 0 C 127.5640258789062 0 163.4348297119141 20.68357086181641 184.5172119140625 52.10337066650391 L 86.85963439941406 117.3841934204102 L 0 38.33982086181641 C 21.48776245117188 14.78069305419922 52.443603515625 0 86.85963439941406 0 Z" stroke="none" fill="#f8f8f8"/>
    </g>
    <g id="Intersection_8" data-name="Intersection 8" transform="translate(0 38.452)" fill="#c94043">
      <path d="M 118.3279266357422 79.75824737548828 L 1.002333164215088 77.71920013427734 C 1.092315316200256 63.33252716064453 3.797820091247559 49.31425857543945 9.047390937805176 36.04025268554688 C 11.61874103546143 29.53835487365723 14.80949115753174 23.22792053222656 18.53097343444824 17.28425407409668 C 22.03909111022949 11.6813850402832 26.0559253692627 6.344645500183105 30.48022651672363 1.407511711120605 L 118.3279266357422 79.75824737548828 Z" stroke="none"/>
      <path d="M 115.6520462036133 78.71159362792969 L 30.56239891052246 2.820743322372437 C 26.43720245361328 7.505441665649414 22.68039321899414 12.54151248931885 19.3785400390625 17.81493759155273 C 15.68932437896729 23.70705413818359 12.52629089355469 29.96267127990723 9.977307319641113 36.40802001953125 C 4.893959522247314 49.26171112060547 2.217063903808594 62.82116317749023 2.012665510177612 76.73661041259766 L 115.6520462036133 78.71159362792969 M 121.0038223266602 80.80490112304688 L 0.0002573486417531967 78.70193481445312 C 0.000107348634628579 78.62332153320312 7.348632607317995e-06 78.54084014892578 7.348632607317995e-06 78.46218872070312 C 7.348632607317995e-06 48.24963760375977 11.51174068450928 20.72293853759766 30.40449142456055 4.376220658741659e-06 L 121.0038223266602 80.80490112304688 Z" stroke="none" fill="#f8f8f8"/>
    </g>
    <g id="Intersection_10" data-name="Intersection 10" transform="translate(117.488 50.832)" fill="#8dca61">
      <path d="M 1.000012159347534 183.5161285400391 L 1.000012159347534 65.69392395019531 L 97.47475433349609 1.391047835350037 C 109.9167175292969 20.55292510986328 116.4869918823242 42.81614685058594 116.4869918823242 65.84628295898438 C 116.4869918823242 73.83158874511719 115.6906051635742 81.81159210205078 114.119987487793 89.56461334228516 C 112.5893936157227 97.1199951171875 110.305534362793 104.5516815185547 107.3318710327148 111.6532287597656 C 104.4121780395508 118.6259231567383 100.7983703613281 125.3511352539062 96.59084320068359 131.6420440673828 C 92.42322540283203 137.8732604980469 87.63703918457031 143.7327728271484 82.36520385742188 149.0578918457031 C 77.09353637695312 154.3828582763672 71.29289245605469 159.2172088623047 65.12442016601562 163.4266662597656 C 58.8972282409668 167.6761779785156 52.24024963378906 171.3260192871094 45.3383674621582 174.2747802734375 C 38.30924987792969 177.2778930664062 30.95346450805664 179.5843505859375 23.47532081604004 181.1300659179688 C 16.12536239624023 182.6492919921875 8.56935977935791 183.4511871337891 1.000012159347534 183.5161285400391 Z" stroke="none"/>
      <path d="M 97.18357086181641 2.786911010742188 L 1.999984741210938 66.22915649414062 L 1.999984741210938 182.5030975341797 C 9.166641235351562 182.3791198730469 16.31297302246094 181.58935546875 23.27286529541016 180.1507568359375 C 30.68585968017578 178.6185150146484 37.97756195068359 176.3321533203125 44.94546508789062 173.3551788330078 C 51.78763580322266 170.4319305419922 58.38716506958008 166.8135833740234 64.56073760986328 162.6006622314453 C 70.67653656005859 158.4271392822266 76.42771148681641 153.6339874267578 81.65451049804688 148.3543548583984 C 86.88166046142578 143.0743865966797 91.62731170654297 137.2645111083984 95.75959014892578 131.0860900878906 C 99.93144226074219 124.8485565185547 103.5145645141602 118.1804580688477 106.4094619750977 111.2669830322266 C 109.3578414916992 104.2258071899414 111.6222610473633 96.85728454589844 113.1398620605469 89.36605834960938 C 114.6972885131836 81.67823028564453 115.4869613647461 73.76502990722656 115.4869613647461 65.84626007080078 C 115.4869613647461 43.35089111328125 109.1645660400391 21.59266662597656 97.18357086181641 2.786911010742188 M 97.75875854492188 1.52587890625e-05 C 110.219612121582 18.84002685546875 117.4869613647461 41.48776245117188 117.4869613647461 65.84626007080078 C 117.4869613647461 131.3878784179688 64.88626098632812 184.5204010009766 -1.52587890625e-05 184.5204010009766 L -1.52587890625e-05 65.15868377685547 L 97.75875854492188 1.52587890625e-05 Z" stroke="none" fill="#f8f8f8"/>
    </g>
    <g id="Intersection_11" data-name="Intersection 11" transform="translate(0 117.288)" fill="#4d4f5c">
      <path d="M 116.4876251220703 117.0606536865234 C 108.9175262451172 116.9964141845703 101.3606872558594 116.2031707763672 94.01002502441406 114.700325012207 C 86.53127288818359 113.1712951660156 79.17491912841797 110.889762878418 72.14533233642578 107.9191131591797 C 65.24314880371094 105.0022964477539 58.5859375 101.3920364379883 52.35858154296875 97.18860626220703 C 46.19015121459961 93.02494049072266 40.38959884643555 88.24323272705078 35.11805725097656 82.97631072998047 C 29.8465518951416 77.70940399169922 25.0606746673584 71.91395568847656 20.89339637756348 65.75096130371094 C 16.68633651733398 59.52912902832031 13.0729513168335 52.87780380249023 10.15361213684082 45.98175811767578 C 7.180412769317627 38.95845031738281 4.896920204162598 31.60866737365723 3.366581678390503 24.1365909576416 C 1.817410111427307 16.57256889343262 1.021619915962219 8.790487289428711 1.000433206558228 1.000005483627319 L 116.4876251220703 1.000005483627319 L 116.4876251220703 117.0606536865234 Z" stroke="none"/>
      <path d="M 2.007469177246094 2 C 2.091163635253906 9.3885498046875 2.876914978027344 16.76169586181641 4.346244812011719 23.93595123291016 C 5.863327026367188 31.34331512451172 8.127044677734375 38.62943267822266 11.07449340820312 45.5919189453125 C 13.96864318847656 52.428466796875 17.55091094970703 59.02250289916992 21.72179412841797 65.19081878662109 C 25.85340881347656 71.30108642578125 30.59838104248047 77.04698181152344 35.82485961914062 82.26890563964844 C 41.05137634277344 87.49085235595703 46.80236053466797 92.23170471191406 52.91804504394531 96.35974884033203 C 59.09191131591797 100.5270690917969 65.69186401367188 104.1063003540039 72.53459167480469 106.9979858398438 C 79.50343322753906 109.9429702758789 86.79619598388672 112.2047882080078 94.21034240722656 113.7206039428711 C 101.1715240478516 115.1438140869141 108.3196029663086 115.9251403808594 115.4876327514648 116.0477905273438 L 115.4876327514648 2 L 2.007469177246094 2 M 0.00196075439453125 0 L 117.4876327514648 0 L 117.4876327514648 118.0649032592773 C 52.60084533691406 118.0649032592773 -7.62939453125e-06 65.51007080078125 -7.62939453125e-06 0.6800537109375 C -7.62939453125e-06 0.454498291015625 0.00069427490234375 0.2252349853515625 0.00196075439453125 0 Z" stroke="none" fill="#f8f8f8"/>
    </g>
  </g>
</svg>
