<svg xmlns="http://www.w3.org/2000/svg" xmlns:xlink="http://www.w3.org/1999/xlink" width="484" height="278" viewBox="0 0 484 278">
  <defs>
    <filter id="Path_253" x="0" y="0" width="484" height="278" filterUnits="userSpaceOnUse">
      <feOffset dy="4" input="SourceAlpha"/>
      <feGaussianBlur stdDeviation="5" result="blur"/>
      <feFlood flood-opacity="0.161"/>
      <feComposite operator="in" in2="blur"/>
      <feComposite in="SourceGraphic"/>
    </filter>
  </defs>
  <g id="Component_86" data-name="Component 86" transform="translate(15 11)">
    <g id="Group_2539" data-name="Group 2539" transform="translate(-676 -244)">
      <g transform="matrix(1, 0, 0, 1, 661, 233)" filter="url(#Path_253)">
        <path id="Path_253-2" data-name="Path 253" d="M-4,12H450V260H-4Z" transform="translate(19 -1)" fill="#fff"/>
      </g>
      <text id="Asset_Details" data-name="Asset Details" transform="translate(702 280)" fill="#919191" font-size="18" font-family="ArialMT, Arial"><tspan x="0" y="0">Asset Details</tspan></text>
    </g>
    <text id="Local_Name:_Equipment_:_Number_of_Spans:_Wire_Run_Type:_Full_Length:_Track_ID:_ELR:_Mileage:_" data-name="Local Name:
Equipment #:
Number of Spans: 
Wire Run Type:
Full Length:
Track ID:
ELR:
Mileage:
" transform="translate(15 69)" fill="#333" font-size="14" font-family="ArialMT, Arial"><tspan x="0" y="0">Local Name:</tspan><tspan x="0" y="22">Equipment #:</tspan><tspan x="0" y="44">Number of Spans: </tspan><tspan x="0" y="66">Wire Run Type:</tspan><tspan x="0" y="88">Full Length:</tspan><tspan x="0" y="110">Track ID:</tspan><tspan x="0" y="132">ELR:</tspan><tspan x="0" y="154">Mileage:</tspan><tspan x="0" y="176"></tspan></text>
    <g id="small-down" transform="translate(9.961 27.561)">
      <path id="Path_26" data-name="Path 26" d="M8.1,11.6,2.6,6.041,4.026,4.6,8.1,8.718,12.174,4.6,13.6,6.041Z" transform="translate(-2.6 -4.6)" fill="#005272"/>
    </g>
  </g>
</svg>
