<svg id="CardTypeTabs" xmlns="http://www.w3.org/2000/svg" width="1130.5" height="45" viewBox="0 0 1130.5 45">
  <path id="Path_296" data-name="Path 296" d="M119.748,3351.976h1040.5" transform="translate(-29.748 -3307.976)" fill="none" stroke="#e9e9f0" stroke-width="2"/>
  <g id="Path_297" data-name="Path 297" fill="none">
    <path d="M4,0H86a4,4,0,0,1,4,4V45H0V4A4,4,0,0,1,4,0Z" stroke="none"/>
    <path d="M 4 2 C 2.897201538085938 2 2 2.897201538085938 2 4 L 2 43 L 88 43 L 88 4 C 88 2.897201538085938 87.10279846191406 2 86 2 L 4 2 M 4 0 L 86 0 C 88.20913696289062 0 90 1.790866851806641 90 4 L 90 45 L 0 45 L 0 4 C 0 1.790866851806641 1.790863037109375 0 4 0 Z" stroke="none" fill="#e9e9f0"/>
  </g>
  <g id="Path_298" data-name="Path 298" transform="translate(93)" fill="#f8f8f8">
    <path d="M 89.5 43.5 L 0.5 43.5 L 0.5 3.911117553710938 C 0.5 2.030223608016968 2.070094108581543 0.5 4 0.5 L 86 0.5 C 87.92990875244141 0.5 89.5 2.030223608016968 89.5 3.911117553710938 L 89.5 43.5 Z" stroke="none"/>
    <path d="M 4 1 C 2.345802307128906 1 1 2.305923461914062 1 3.911113739013672 L 1 43 L 89 43 L 89 3.911113739013672 C 89 2.305923461914062 87.65419769287109 1 86 1 L 4 1 M 4 0 L 86 0 C 88.20913696289062 0 90 1.751064300537109 90 3.911113739013672 L 90 44 L 0 44 L 0 3.911113739013672 C 0 1.751064300537109 1.790863037109375 0 4 0 Z" stroke="none" fill="#e9e9f0"/>
  </g>
  <g id="Path_299" data-name="Path 299" transform="translate(186)" fill="#f8f8f8">
    <path d="M 89.5 43.5 L 0.5 43.5 L 0.5 3.911117553710938 C 0.5 2.030223608016968 2.070094108581543 0.5 4 0.5 L 86 0.5 C 87.92990875244141 0.5 89.5 2.030223608016968 89.5 3.911117553710938 L 89.5 43.5 Z" stroke="none"/>
    <path d="M 4 1 C 2.345802307128906 1 1 2.305923461914062 1 3.911113739013672 L 1 43 L 89 43 L 89 3.911113739013672 C 89 2.305923461914062 87.65419769287109 1 86 1 L 4 1 M 4 0 L 86 0 C 88.20913696289062 0 90 1.751064300537109 90 3.911113739013672 L 90 44 L 0 44 L 0 3.911113739013672 C 0 1.751064300537109 1.790863037109375 0 4 0 Z" stroke="none" fill="#e9e9f0"/>
  </g>
  <text id="Tab_1" data-name="Tab 1" transform="translate(45 29)" fill="#4f99bb" font-size="15" font-family="Arial-BoldMT, Arial" font-weight="700"><tspan x="-19.032" y="0">Tab 1</tspan></text>
  <text id="Tab_2" data-name="Tab 2" transform="translate(138 29)" fill="#585858" font-size="15" font-family="ArialMT, Arial"><tspan x="-18.347" y="0">Tab 2</tspan></text>
  <text id="Tab_3" data-name="Tab 3" transform="translate(231 29)" fill="#585858" font-size="15" font-family="ArialMT, Arial"><tspan x="-18.347" y="0">Tab 3</tspan></text>
  <rect id="Rectangle_162" data-name="Rectangle 162" width="86" height="2" transform="translate(2 43)" fill="#fff"/>
</svg>
