<svg id="Component_421" data-name="Component 421" xmlns="http://www.w3.org/2000/svg" width="347" height="36" viewBox="0 0 347 36">
  <g id="Component_404_5" data-name="Component 404 – 5" transform="translate(52)">
    <rect id="Rectangle_2252" data-name="Rectangle 2252" width="36" height="36" rx="2" fill="#1d7880"/>
    <g id="Component_234_14" data-name="Component 234 – 14" transform="translate(14 10)">
      <text id="_1" data-name="1" transform="translate(0 13)" fill="#fff" font-size="14" font-family="Arial-BoldMT, Arial" font-weight="700"><tspan x="0" y="0">1</tspan></text>
    </g>
  </g>
  <g id="Component_403_5" data-name="Component 403 – 5" transform="translate(104)">
    <g id="Selectbox.BG" transform="translate(36 36) rotate(180)" fill="#fff" stroke="rgba(0,0,0,0.15)" stroke-width="1">
      <rect width="36" height="36" rx="2" stroke="none"/>
      <rect x="0.5" y="0.5" width="35" height="35" rx="1.5" fill="none"/>
    </g>
    <g id="Component_234_16" data-name="Component 234 – 16" transform="translate(14 10)">
      <text id="_2" data-name="2" transform="translate(0 13)" fill="#333" font-size="14" font-family="ArialMT, Arial"><tspan x="0" y="0">2</tspan></text>
    </g>
  </g>
  <g id="Component_403_6" data-name="Component 403 – 6" transform="translate(156)">
    <g id="Selectbox.BG-2" data-name="Selectbox.BG" transform="translate(36 36) rotate(180)" fill="#fff" stroke="rgba(0,0,0,0.15)" stroke-width="1">
      <rect width="36" height="36" rx="2" stroke="none"/>
      <rect x="0.5" y="0.5" width="35" height="35" rx="1.5" fill="none"/>
    </g>
    <g id="Component_234_16-2" data-name="Component 234 – 16" transform="translate(14 10)">
      <text id="_3" data-name="3" transform="translate(0 13)" fill="#333" font-size="14" font-family="ArialMT, Arial"><tspan x="0" y="0">3</tspan></text>
    </g>
  </g>
  <g id="Component_403_7" data-name="Component 403 – 7" transform="translate(207)">
    <g id="Selectbox.BG-3" data-name="Selectbox.BG" transform="translate(36 36) rotate(180)" fill="#fff" stroke="rgba(0,0,0,0.15)" stroke-width="1">
      <rect width="36" height="36" rx="2" stroke="none"/>
      <rect x="0.5" y="0.5" width="35" height="35" rx="1.5" fill="none"/>
    </g>
    <g id="Component_234_16-3" data-name="Component 234 – 16" transform="translate(14 10)">
      <text id="_4" data-name="4" transform="translate(0 13)" fill="#333" font-size="14" font-family="ArialMT, Arial"><tspan x="0" y="0">4</tspan></text>
    </g>
  </g>
  <g id="Component_403_8" data-name="Component 403 – 8" transform="translate(259)">
    <g id="Selectbox.BG-4" data-name="Selectbox.BG" transform="translate(36 36) rotate(180)" fill="#fff" stroke="rgba(0,0,0,0.15)" stroke-width="1">
      <rect width="36" height="36" rx="2" stroke="none"/>
      <rect x="0.5" y="0.5" width="35" height="35" rx="1.5" fill="none"/>
    </g>
    <g id="Component_234_16-4" data-name="Component 234 – 16" transform="translate(14 10)">
      <text id="_5" data-name="5" transform="translate(0 13)" fill="#333" font-size="14" font-family="ArialMT, Arial"><tspan x="0" y="0">5</tspan></text>
    </g>
  </g>
  <g id="Component_399_4" data-name="Component 399 – 4">
    <g id="Selectbox.BG-5" data-name="Selectbox.BG" fill="#fff" stroke="rgba(0,0,0,0.15)" stroke-width="1">
      <rect width="36" height="36" rx="2" stroke="none"/>
      <rect x="0.5" y="0.5" width="35" height="35" rx="1.5" fill="none"/>
    </g>
    <path id="Path_1904" data-name="Path 1904" d="M5,6.364,0,1.31,1.3,0,5,3.743,8.7,0,10,1.31Z" transform="translate(20.717 13.058) rotate(90)" fill="#ccc"/>
  </g>
  <g id="Component_400_9" data-name="Component 400 – 9" transform="translate(311)">
    <g id="Selectbox.BG-6" data-name="Selectbox.BG" fill="#fff" stroke="rgba(0,0,0,0.15)" stroke-width="1">
      <rect width="36" height="36" rx="2" stroke="none"/>
      <rect x="0.5" y="0.5" width="35" height="35" rx="1.5" fill="none"/>
    </g>
    <path id="Path_5136" data-name="Path 5136" d="M5,0,0,5.053l1.3,1.31L5,2.62,8.7,6.364,10,5.053Z" transform="translate(21.364 13) rotate(90)" fill="#1d7880"/>
  </g>
</svg>
