<svg xmlns="http://www.w3.org/2000/svg" width="18.591" height="16" viewBox="0 0 18.591 16">
  <g id="Icon_ViewPassword" transform="translate(0 0)">
    <path id="Union_47" data-name="Union 47" d="M9.3,11.214H9.283C4.432,11.191,2.228,8.268.527,6.621A1.428,1.428,0,0,1,0,5.512,1.926,1.926,0,0,1,.794,4.24C2.875,2.547,4.875.084,9.282,0h.027c4.411.083,6.406,2.547,8.49,4.24a1.928,1.928,0,0,1,.791,1.272,1.425,1.425,0,0,1-.525,1.109c-1.7,1.646-3.894,4.57-8.755,4.592H9.3ZM4.983,5.606A4.313,4.313,0,1,0,9.3,1.265,4.344,4.344,0,0,0,4.983,5.606ZM9.3,8.114l-.021,0v0a2.51,2.51,0,0,1,0-5.018h.041a2.51,2.51,0,0,1,0,5.018v0C9.309,8.116,9.3,8.114,9.3,8.114Z" transform="translate(0 2.987)" fill="#1d7880"/>
    <rect id="Rectangle_2724" data-name="Rectangle 2724" width="3.017" height="19.61" transform="translate(0.94 2.133) rotate(-45)" fill="#fff"/>
    <rect id="Rectangle_2725" data-name="Rectangle 2725" width="1.508" height="17.348" transform="translate(2.761 2.888) rotate(-45)" fill="#1d7880"/>
  </g>
</svg>
